<svg class="animated" id="freepik_stories-vintage-truck" xmlns="http://www.w3.org/2000/svg" viewBox="0 0 500 500" version="1.1" xmlns:xlink="http://www.w3.org/1999/xlink" xmlns:svgjs="http://svgjs.com/svgjs"><style>svg#freepik_stories-vintage-truck:not(.animated) .animable {opacity: 0;}svg#freepik_stories-vintage-truck.animated #freepik--Truck--inject-1 {animation: 1s 1 forwards cubic-bezier(.36,-0.01,.5,1.38) slideLeft,3s Infinite  linear shake;animation-delay: 0s,1s;}            @keyframes slideLeft {                0% {                    opacity: 0;                    transform: translateX(-30px);                }                100% {                    opacity: 1;                    transform: translateX(0);                }            }                    @keyframes shake {                10%, 90% {                    transform: translate3d(-1px, 0, 0);                  }                  20%, 80% {                    transform: translate3d(2px, 0, 0);                  }                  30%, 50%, 70% {                    transform: translate3d(-4px, 0, 0);                  }                  40%, 60% {                    transform: translate3d(4px, 0, 0);                  }            }        </style><g id="freepik--background-complete--inject-1" class="animable" style="transform-origin: 250px 228.23px;"><rect y="382.4" width="500" height="0.25" style="fill: rgb(235, 235, 235); transform-origin: 250px 382.525px;" id="el0q1zhda1ggh" class="animable"></rect><rect x="416.78" y="398.49" width="33.12" height="0.25" style="fill: rgb(235, 235, 235); transform-origin: 433.34px 398.615px;" id="eltjyz5junmsd" class="animable"></rect><rect x="322.53" y="401.21" width="8.69" height="0.25" style="fill: rgb(235, 235, 235); transform-origin: 326.875px 401.335px;" id="elu1opqf89v5b" class="animable"></rect><rect x="396.59" y="389.21" width="19.19" height="0.25" style="fill: rgb(235, 235, 235); transform-origin: 406.185px 389.335px;" id="el55t9mvrveqs" class="animable"></rect><rect x="52.46" y="390.89" width="43.19" height="0.25" style="fill: rgb(235, 235, 235); transform-origin: 74.055px 391.015px;" id="el0xkzhdjmw5n" class="animable"></rect><rect x="104.56" y="390.89" width="6.33" height="0.25" style="fill: rgb(235, 235, 235); transform-origin: 107.725px 391.015px;" id="elmrqq56f6tio" class="animable"></rect><rect x="131.47" y="395.11" width="93.68" height="0.25" style="fill: rgb(235, 235, 235); transform-origin: 178.31px 395.235px;" id="eltedq5pdiv1q" class="animable"></rect><path d="M237,337.8H43.91a5.71,5.71,0,0,1-5.7-5.71V60.66A5.71,5.71,0,0,1,43.91,55H237a5.71,5.71,0,0,1,5.71,5.71V332.09A5.71,5.71,0,0,1,237,337.8ZM43.91,55.2a5.46,5.46,0,0,0-5.45,5.46V332.09a5.46,5.46,0,0,0,5.45,5.46H237a5.47,5.47,0,0,0,5.46-5.46V60.66A5.47,5.47,0,0,0,237,55.2Z" style="fill: rgb(235, 235, 235); transform-origin: 140.46px 196.4px;" id="elfualtdo1hvi" class="animable"></path><path d="M453.31,337.8H260.21a5.72,5.72,0,0,1-5.71-5.71V60.66A5.72,5.72,0,0,1,260.21,55h193.1A5.71,5.71,0,0,1,459,60.66V332.09A5.71,5.71,0,0,1,453.31,337.8ZM260.21,55.2a5.47,5.47,0,0,0-5.46,5.46V332.09a5.47,5.47,0,0,0,5.46,5.46h193.1a5.47,5.47,0,0,0,5.46-5.46V60.66a5.47,5.47,0,0,0-5.46-5.46Z" style="fill: rgb(235, 235, 235); transform-origin: 356.75px 196.4px;" id="elenktxmmbtbo" class="animable"></path><path d="M299,242.15a5.44,5.44,0,0,0-3.06-.93c-.63-.85,0-2,.65-2.84s1.53-1.7,1.33-2.73c-.29-1.56-2.44-1.72-4-1.5a11.28,11.28,0,0,1-.69-3.19c-.22-1.07-1-2.23-2.1-2.15s-1.72,1.2-2.73,1.39c-1.18.22-2.14-.86-3-1.68a3.17,3.17,0,0,0-.34-.28h0c.34-3.18,3.37-2.53,6-2.84,2-.24-3.07-5.62,1.1-7.07a3.65,3.65,0,0,0,2-1.28,2.32,2.32,0,0,0-.76-2.88,5.44,5.44,0,0,0-3.06-.93c-.63-.84,0-2,.66-2.83s1.52-1.71,1.32-2.74c-.29-1.56-2.44-1.72-4-1.49a11,11,0,0,1-.69-3.2c-.23-1.07-1-2.22-2.11-2.14s-1.71,1.2-2.73,1.38c-1.18.22-2.14-.86-3-1.68s-2.45-1.37-3.13-.39c-.4.6-.22,1.46-.64,2-.73,1-2.31.28-3.27-.5s-2.53-1.54-3.28-.55a4.41,4.41,0,0,0-.44,1.05,2.78,2.78,0,0,1-.44.72c-.16-.72-.18-1.49-.34-2.22-.23-1.08-1-2.23-2.11-2.15s-1.71,1.2-2.73,1.39-2.13-.86-3-1.68-2.45-1.38-3.13-.39c-.41.59-.23,1.45-.65,2a1.14,1.14,0,0,1-.34.32c-.34-.06-.69-.09-1-.12-.63-.84,0-2,.66-2.83s1.52-1.7,1.33-2.73c-.3-1.56-2.45-1.72-4-1.5a11.27,11.27,0,0,1-.69-3.2c-.23-1.07-1-2.22-2.11-2.14s-1.71,1.2-2.73,1.39c-1.18.22-2.14-.86-3-1.68s-2.46-1.38-3.14-.39c-.4.59-.22,1.45-.64,2-.73,1-2.31.29-3.27-.5S235,187,234.28,188a4.24,4.24,0,0,0-.44,1c-.54,1.34-2.05,2-3.24,2.77s-2.19,2.52-1.27,3.63c.46.55,1.29.81,1.5,1.49.25.85-.64,1.57-1.35,2.11a3.57,3.57,0,0,0-.85,3.62,3,3,0,0,1-1.21.63c-1.18.22-2.14-.86-3-1.68s-2.45-1.38-3.13-.39c-.41.59-.22,1.46-.64,2-.73,1-2.31.28-3.28-.51s-2.52-1.53-3.28-.54a4.86,4.86,0,0,0-.44,1c-.54,1.34-2,2-3.24,2.77s-2.18,2.52-1.26,3.64c.43.52,1.21.78,1.46,1.41-.79-.36-1.67-.41-2.13.26s-.22,1.46-.65,2c-.73,1-2.31.28-3.27-.51s-2.52-1.53-3.28-.54a4.41,4.41,0,0,0-.44,1c-.54,1.35-2,2-3.24,2.77s-2.18,2.52-1.26,3.64c.45.55,1.28.8,1.49,1.48.26.86-.64,1.57-1.34,2.11-1.18.91-1.53,3.78-.07,4.63.61.37,1.53.51,1.65,1.21s-.55,1.08-1,1.53a3,3,0,0,0,.7,4.47c.35.19.78.35.9.73a1.43,1.43,0,0,1-.13.83,4.31,4.31,0,0,0-.22,1.59.73.73,0,0,0,.17.52.75.75,0,0,0,.47.15c2.15.2,3.23-.51,4.45,1.43a1.49,1.49,0,0,0,.43.5,1.45,1.45,0,0,0,.59.18c1.47.19,2.49-.69,3.85-.79,1.89-.15,2.24.84,3.86,1.7,2.55,1.35,3.85.65,4.42-1.1a7.13,7.13,0,0,0,.31-1.53,2.67,2.67,0,0,1,1-2h0c1.38.18,2.35-.56,3.58-.75l.77,0c1.47,0,1.91.92,3.37,1.7a5.21,5.21,0,0,0,2.19.7c.18.82-.67,1.5-1.35,2-1.18.91-1.52,3.77-.07,4.63.61.36,1.53.51,1.65,1.21s-.54,1.07-1,1.53a3,3,0,0,0,.69,4.46c.35.19.78.35.9.74a1.43,1.43,0,0,1-.13.83,4.5,4.5,0,0,0-.22,1.59.58.58,0,0,0,.64.67c2.15.2,3.23-.51,4.45,1.43a1.73,1.73,0,0,0,.43.5,1.31,1.31,0,0,0,.59.17c1.48.2,2.49-.68,3.85-.79,1.9-.15,2.25.84,3.87,1.7,2.54,1.35,3.84.66,4.42-1.09a8,8,0,0,0,.3-1.53c.35-3.19,3.38-2.53,6-2.84a.51.51,0,0,0,.44-.27l.17,0c1.47.19,2.49-.69,3.85-.79,1.89-.15,2.24.84,3.86,1.69,2.55,1.36,3.85.66,4.42-1.09a7.13,7.13,0,0,0,.31-1.53c.27-2.48,2.16-2.63,4.22-2.72a2.87,2.87,0,0,0,1.39,2.4c.35.19.78.35.9.73a1.43,1.43,0,0,1-.13.83,4.5,4.5,0,0,0-.22,1.59.78.78,0,0,0,.17.52.75.75,0,0,0,.47.15c2.15.2,3.23-.51,4.45,1.43a1.61,1.61,0,0,0,.43.5,1.45,1.45,0,0,0,.59.18c1.48.19,2.49-.69,3.85-.79,1.9-.15,2.25.84,3.86,1.7,2.55,1.35,3.85.65,4.43-1.1a7.82,7.82,0,0,0,.3-1.53c.35-3.18,3.38-2.53,6-2.84,2-.24-3.07-5.62,1.1-7.08a3.6,3.6,0,0,0,2-1.28A2.31,2.31,0,0,0,299,242.15Z" style="fill: rgb(235, 235, 235); transform-origin: 247.641px 223.326px;" id="elhci84wxqr4" class="animable"></path><path d="M221.23,270.4a4.23,4.23,0,0,0-2.41-.73c-.5-.67,0-1.61.52-2.23s1.19-1.34,1-2.16c-.23-1.23-1.93-1.35-3.16-1.17a8.86,8.86,0,0,1-.55-2.52c-.18-.85-.8-1.75-1.66-1.69s-1.35,1-2.14,1.09-1.69-.67-2.38-1.32-1.93-1.08-2.47-.31c-.32.47-.17,1.15-.5,1.61-.58.79-1.82.22-2.58-.4s-2-1.21-2.58-.43a3.39,3.39,0,0,0-.35.83c-.42,1.06-1.61,1.54-2.55,2.18s-1.72,2-1,2.86c.36.44,1,.64,1.18,1.17s-.5,1.24-1.06,1.66c-.92.72-1.2,3-.05,3.65.48.28,1.2.4,1.3.95s-.43.85-.78,1.21a2.34,2.34,0,0,0,.55,3.51c.27.15.62.28.71.58a1.15,1.15,0,0,1-.1.65,3.38,3.38,0,0,0-.18,1.26.58.58,0,0,0,.14.4.56.56,0,0,0,.36.12c1.7.16,2.55-.4,3.51,1.13a1.17,1.17,0,0,0,.34.39,1,1,0,0,0,.46.14c1.16.15,2-.54,3-.62,1.49-.12,1.76.66,3,1.34,2,1.06,3,.52,3.48-.86a6.64,6.64,0,0,0,.24-1.21c.27-2.51,2.66-2,4.72-2.23,1.61-.19-2.43-4.43.86-5.58a2.76,2.76,0,0,0,1.6-1A1.82,1.82,0,0,0,221.23,270.4Z" style="fill: rgb(235, 235, 235); transform-origin: 209.822px 271.528px;" id="el4qw08dyl8io" class="animable"></path><path d="M241.91,382.12h12.74c.73-12.8,3.28-69.75.7-95,.17-.79.35-1.7.53-2.76,1.75-9.91,11.79-24.53,13.77-26.86s7.75-9.7,7.75-9.7l-1-1.73-9.22,9.26L271,244.87l6.92-8.06-1.07-1-6.47,6.41-.58-10.67-2.44-.12s2.64,12.29.3,16.81c0,0-9.71,19.45-14.57,23.43a4.66,4.66,0,0,0-.73.8,48.46,48.46,0,0,0-4.9-10.4c2.06-4.61,6.5-14.77,8.11-20.2a107.57,107.57,0,0,0,3-12.91l-1.78-1.09s-5.05,21.05-12.64,30a28.26,28.26,0,0,0-6.89-5.11c-.44-2.9-.44-7.9,1.84-15.6l-1.35-1.37a44.12,44.12,0,0,0-3.49,15.29,26.09,26.09,0,0,1-3-2c-6.65-5.17-11.06-14.15-11.06-14.15l-2.61-.13s6.38,14.61,14.36,19.32S244.71,269.6,245,272.37c.08.79-.14,9.1-.5,20.58-8.68-5.87-30-20.3-31.13-21.3l-.13,2.66,31,25.35C243.47,325.13,242.21,372.72,241.91,382.12Z" style="fill: rgb(245, 245, 245); transform-origin: 245.58px 304.995px;" id="elkkr8qpo7yd" class="animable"></path><path d="M129.71,97.9a3.79,3.79,0,0,0-3.79-3.79,3.55,3.55,0,0,0-1.09.16,9,9,0,0,0,.08-1.17,8,8,0,0,0-9.52-7.9,7,7,0,0,0-13,3.55h-.12a6.48,6.48,0,0,0,0,13H126A3.79,3.79,0,0,0,129.71,97.9Z" style="fill: rgb(250, 250, 250); transform-origin: 112.74px 91.7776px;" id="elt70werdw37" class="animable"></path><path d="M343.82,115.32H363a12.81,12.81,0,0,1-.08-1.39,12.62,12.62,0,0,1,12.62-12.63c.16,0,.31,0,.46,0a11.16,11.16,0,0,1,21.62,3.89v0a10.64,10.64,0,0,1,10.14,10.07h.5a5.62,5.62,0,0,1,0,11.23H343.82a5.62,5.62,0,0,1,0-11.23Z" style="fill: rgb(250, 250, 250); transform-origin: 376.04px 110.26px;" id="eldx4gr8kh91c" class="animable"></path><path d="M234.67,124.92a23.32,23.32,0,0,1,39.79.34,12.22,12.22,0,0,1,3.38-.48,12.53,12.53,0,0,1,12.52,12.52v0H297a6.25,6.25,0,0,1,0,12.5H274.18a23.35,23.35,0,0,1-36.41,3.83c-.39,0-.79.06-1.19.06a14.46,14.46,0,0,1-1.91-28.79Z" style="fill: rgb(250, 250, 250); transform-origin: 262.693px 137.291px;" id="eldhq36qfw9mf" class="animable"></path><path d="M96.84,216.62l3.76,10.84,17.89,5.46-11,149.2H147c-1-10.75-5.43-101.56-6.33-116.44l18.16-34.51h-3.62l-.76,1.2a55.73,55.73,0,0,1-10.16,12,25.37,25.37,0,0,1-4.77,3.45c-1.7-4.81-4.72-68.48-4.72-68.48S131,188.46,119.35,183l-1.07,40.66-11.62-2.38L95.33,198.92H90.79l4.08,9.65-9.52-2.06L77.19,196l-2.85.69,7.39,11.34Z" style="fill: rgb(245, 245, 245); transform-origin: 116.585px 280.73px;" id="elz0yfxglsnxa" class="animable"></path><path d="M185.51,157.92a15.14,15.14,0,0,1,9.64,14.41,16.56,16.56,0,0,1-10.07,14.35,18.3,18.3,0,0,1-17.57-2.31c-.25,5.93-4.31,12.38-10,14.18a15,15,0,0,1-16-5c-15.24,9.57-68.63,13.13-78-27.67-1.94-8.42,2.75-17.35,9.63-22.58s15.62-7.38,24.21-8.43c8.14-13,26.19-20.05,41.36-18A41.14,41.14,0,0,1,171.88,145C187.35,145.06,185.74,159,185.51,157.92Z" style="fill: rgb(235, 235, 235); transform-origin: 129.111px 158.141px;" id="el3nqobez5ax4" class="animable"></path><path d="M166.68,238.17a8.17,8.17,0,0,1-14.61-2.29c-3.61,2.54-9.19,1.91-12.85-.56a11,11,0,0,1,4.72-20,13.11,13.11,0,0,1,6.15-10,14.23,14.23,0,0,1,12.19-1.29,14.94,14.94,0,0,1,13,4.16,11.78,11.78,0,0,1,3.8,9.15c-.29,3.4-2.77,6.66-6.12,7.31a10,10,0,0,1,.35,7.95C172.2,235.21,169.28,237.21,166.68,238.17Z" style="fill: rgb(235, 235, 235); transform-origin: 156.746px 222.489px;" id="elf7y29dewqmh" class="animable"></path><path d="M89.82,176.5a8.16,8.16,0,0,1,10.3,10.6c4.41.14,8.5,4,9.94,8.17a11,11,0,0,1-15.77,13.12,13.08,13.08,0,0,1-10.9,4.29,14.26,14.26,0,0,1-10.52-6.29A14.94,14.94,0,0,1,65,195.27a11.75,11.75,0,0,1,2.46-9.59c2.27-2.55,6.21-3.67,9.28-2.17a10,10,0,0,1,4.49-6.57C83.62,175.55,87.16,175.71,89.82,176.5Z" style="fill: rgb(235, 235, 235); transform-origin: 87.7177px 194.316px;" id="el00ef2st20atft" class="animable"></path><g id="elnhqc6shh06"><rect x="71.02" y="305.99" width="358.42" height="12.15" style="fill: rgb(224, 224, 224); transform-origin: 250.23px 312.065px; transform: rotate(180deg);" class="animable"></rect></g><polygon points="421 382.12 437.88 382.12 437.88 275.56 429.44 269.56 421 275.56 421 382.12" style="fill: rgb(230, 230, 230); transform-origin: 429.44px 325.84px;" id="el3l10jwlz442" class="animable"></polygon><polygon points="391.13 382.12 408.01 382.12 408.01 275.56 399.57 269.56 391.13 275.56 391.13 382.12" style="fill: rgb(230, 230, 230); transform-origin: 399.57px 325.84px;" id="ely8fcqdx4kh" class="animable"></polygon><polygon points="361.26 382.12 378.14 382.12 378.14 275.56 369.7 269.56 361.26 275.56 361.26 382.12" style="fill: rgb(230, 230, 230); transform-origin: 369.7px 325.84px;" id="elwmhazdjyt6" class="animable"></polygon><polygon points="331.4 382.12 348.27 382.12 348.27 275.56 339.84 269.56 331.4 275.56 331.4 382.12" style="fill: rgb(230, 230, 230); transform-origin: 339.835px 325.84px;" id="el6hha4ookj9f" class="animable"></polygon><polygon points="301.53 382.12 318.41 382.12 318.41 275.56 309.97 269.56 301.53 275.56 301.53 382.12" style="fill: rgb(230, 230, 230); transform-origin: 309.97px 325.84px;" id="elkzaoiefa3ap" class="animable"></polygon><polygon points="271.66 382.12 288.54 382.12 288.54 275.56 280.1 269.56 271.66 275.56 271.66 382.12" style="fill: rgb(230, 230, 230); transform-origin: 280.1px 325.84px;" id="eltzazqjju2sa" class="animable"></polygon><polygon points="241.79 382.12 258.67 382.12 258.67 275.56 250.23 269.56 241.79 275.56 241.79 382.12" style="fill: rgb(230, 230, 230); transform-origin: 250.23px 325.84px;" id="elrt26kzvrzdh" class="animable"></polygon><polygon points="211.92 382.12 228.8 382.12 228.8 275.56 220.36 269.56 211.92 275.56 211.92 382.12" style="fill: rgb(230, 230, 230); transform-origin: 220.36px 325.84px;" id="el2mq8vbeb1b5" class="animable"></polygon><polygon points="182.06 382.12 198.94 382.12 198.94 275.56 190.5 269.56 182.06 275.56 182.06 382.12" style="fill: rgb(230, 230, 230); transform-origin: 190.5px 325.84px;" id="el4rlx1drzbqc" class="animable"></polygon><polygon points="152.19 382.12 169.07 382.12 169.07 275.56 160.63 269.56 152.19 275.56 152.19 382.12" style="fill: rgb(230, 230, 230); transform-origin: 160.63px 325.84px;" id="el64qtw05v01h" class="animable"></polygon><polygon points="122.32 382.12 139.2 382.12 139.2 275.56 130.76 269.56 122.32 275.56 122.32 382.12" style="fill: rgb(230, 230, 230); transform-origin: 130.76px 325.84px;" id="eltix69v6w2ai" class="animable"></polygon><polygon points="92.45 382.12 109.33 382.12 109.33 275.56 100.89 269.56 92.45 275.56 92.45 382.12" style="fill: rgb(230, 230, 230); transform-origin: 100.89px 325.84px;" id="elults000ek8h" class="animable"></polygon><polygon points="62.58 382.12 79.46 382.12 79.46 275.56 71.02 269.56 62.58 275.56 62.58 382.12" style="fill: rgb(230, 230, 230); transform-origin: 71.02px 325.84px;" id="elyk6mwxqri" class="animable"></polygon></g><g id="freepik--Shadow--inject-1" class="animable" style="transform-origin: 250px 416.24px;"><ellipse id="freepik--path--inject-1" cx="250" cy="416.24" rx="193.89" ry="11.32" style="fill: rgb(245, 245, 245); transform-origin: 250px 416.24px;" class="animable"></ellipse></g><g id="freepik--Windmill--inject-1" class="animable" style="transform-origin: 361.675px 260.92px;"><path d="M360.37,209.58h18.71l12.22,3.58s.26,53.16,9.95,91.18H338.2c9.69-38,9.95-91.18,9.95-91.18Z" style="fill: rgb(141, 14, 201); transform-origin: 369.725px 256.96px;" id="el4bcou7tcl22" class="animable"></path><g id="el6f10utkf6q9"><path d="M338.2,304.35h63.05q-.78-3-1.46-6.2c0-.14-.07-.29-.1-.44-.44-2-.85-4-1.24-6,0-.15-.06-.3-.08-.44-.38-2-.74-4-1.08-6,0-.15-.05-.29-.08-.43-.33-2-.64-4-.94-6,0-.14,0-.29-.07-.44q-.43-3-.82-6c0-.15-.05-.3-.06-.44-.26-2-.51-4-.73-6,0-.14,0-.29,0-.43-.22-2-.44-4-.63-6,0-.15,0-.29-.05-.43q-.3-3.06-.55-6l-.05-.44q-.25-3.08-.48-6c0-.14,0-.29,0-.43-.15-2.08-.29-4.08-.41-6,0-.14,0-.29,0-.43-.12-2.1-.24-4.11-.34-6l0-.44q-.17-3.22-.28-6c0-.15,0-.29,0-.44q-.09-2.12-.15-3.93c0-.74,0-1.43-.07-2.09,0-.15,0-.3,0-.44-.08-2.82-.11-4.9-.12-6,0-.17,0-.31,0-.44v-.53l-12.22-3.58H360.37l-12.22,3.58s0,.18,0,.53v.44c0,.59,0,1.43,0,2.5s-.05,2.17-.08,3.53c0,.14,0,.29,0,.44,0,1.75-.11,3.77-.2,6,0,.14,0,.29,0,.44-.08,1.86-.16,3.87-.28,6l0,.44c-.09,1.91-.21,3.93-.34,6l0,.43q-.18,2.91-.41,6l0,.43c-.15,2-.31,4-.48,6,0,.15,0,.29,0,.44q-.25,3-.55,6c0,.14,0,.28-.05.43q-.3,3-.64,6c0,.14,0,.29-.05.43-.22,2-.47,4-.73,6,0,.14,0,.29-.05.44-.27,2-.54,4-.84,6,0,.15,0,.3-.07.44-.28,2-.6,4-.94,6,0,.14,0,.28-.07.43-.34,2-.69,4-1.08,6,0,.14-.05.29-.08.44q-.58,3-1.23,6c0,.14-.07.29-.1.44C339.2,300.25,338.72,302.32,338.2,304.35Z" style="fill: rgb(255, 255, 255); opacity: 0.7; transform-origin: 369.725px 257.13px;" class="animable"></path></g><g id="elx5anfz4pm0m"><path d="M364,209.2h6.86l4.39,3.59s-1.33,53.38,1.2,91.55H353.31c4.58-38.17,6.1-91.55,6.1-91.55Z" style="fill: rgb(255, 255, 255); opacity: 0.1; transform-origin: 364.88px 256.77px;" class="animable"></path></g><g id="el76m4eylyt09"><path d="M348.1,216.63c8,1.08,31,4.31,43.41,6.06-.2-6-.22-9.53-.22-9.53l-12.21-3.58H360.37l-12.22,3.58S348.14,214.4,348.1,216.63Z" style="opacity: 0.2; transform-origin: 369.805px 216.135px;" class="animable"></path></g><g id="el12lbzi7n3md9"><path d="M339.67,298.15h60.12c0-.14-.07-.29-.1-.44H339.77C339.74,297.85,339.7,298,339.67,298.15Z" style="opacity: 0.1; transform-origin: 369.73px 297.93px;" class="animable"></path></g><g id="el8f2wmt9lct2"><path d="M341,291.69h57.45c0-.15-.06-.3-.08-.44H341.08C341.06,291.39,341,291.54,341,291.69Z" style="opacity: 0.1; transform-origin: 369.725px 291.47px;" class="animable"></path></g><g id="elhuh5s0x1pzq"><path d="M342.16,285.22h55.13c0-.15-.05-.29-.08-.43h-55C342.21,284.93,342.19,285.07,342.16,285.22Z" style="opacity: 0.1; transform-origin: 369.725px 285.005px;" class="animable"></path></g><g id="el0injbl8ky7qg"><path d="M343.17,278.76h53.1c0-.14,0-.29-.07-.44h-53C343.22,278.47,343.2,278.62,343.17,278.76Z" style="opacity: 0.1; transform-origin: 369.72px 278.54px;" class="animable"></path></g><g id="el09rhkhi73rj"><path d="M344.08,272.3h51.3c0-.15-.05-.3-.06-.44H344.13C344.11,272,344.1,272.15,344.08,272.3Z" style="opacity: 0.1; transform-origin: 369.73px 272.08px;" class="animable"></path></g><g id="elx6l7qx0qxxp"><path d="M344.86,265.83h49.73c0-.14,0-.29,0-.43H344.91C344.9,265.54,344.88,265.69,344.86,265.83Z" style="opacity: 0.1; transform-origin: 369.725px 265.615px;" class="animable"></path></g><g id="elshp0igeyy6a"><path d="M345.55,259.37h48.36c0-.15,0-.29-.05-.43H345.6C345.58,259.08,345.57,259.22,345.55,259.37Z" style="opacity: 0.1; transform-origin: 369.73px 259.155px;" class="animable"></path></g><g id="elu1q3s2ba4vj"><path d="M346.15,252.91h47.16l-.05-.44H346.19C346.17,252.62,346.16,252.76,346.15,252.91Z" style="opacity: 0.1; transform-origin: 369.73px 252.69px;" class="animable"></path></g><g id="elkv2hkg38unl"><path d="M346.67,246.44h46.11c0-.14,0-.29,0-.43H346.7Z" style="opacity: 0.1; transform-origin: 369.725px 246.225px;" class="animable"></path></g><g id="elahmjsnqt67h"><path d="M347.11,240h45.23c0-.14,0-.29,0-.43H347.14Z" style="opacity: 0.1; transform-origin: 369.725px 239.785px;" class="animable"></path></g><g id="elio4a4ivlsgf"><polygon points="347.48 233.52 391.97 233.52 391.95 233.08 347.5 233.08 347.48 233.52" style="opacity: 0.1; transform-origin: 369.725px 233.3px;" class="animable"></polygon></g><g id="el3bt83p0a973"><path d="M347.78,227.06h43.89c0-.15,0-.29,0-.44H347.8C347.79,226.76,347.79,226.91,347.78,227.06Z" style="opacity: 0.1; transform-origin: 369.725px 226.84px;" class="animable"></path></g><g id="elf4crw5vxui"><path d="M348,220.6h43.44c0-.15,0-.3,0-.44H348C348,220.3,348,220.45,348,220.6Z" style="opacity: 0.1; transform-origin: 369.72px 220.38px;" class="animable"></path></g><g id="el7ihpucxf31d"><path d="M348.14,213.69v.44h43.17c0-.17,0-.31,0-.44Z" style="opacity: 0.1; transform-origin: 369.725px 213.91px;" class="animable"></path></g><g id="elcdvlra5wwy"><rect x="343.21" y="213.16" width="53.03" height="3.12" style="fill: rgb(141, 14, 201); transform-origin: 369.725px 214.72px; transform: rotate(180deg);" class="animable"></rect></g><polygon points="369.72 186.65 396.24 213.16 343.21 213.16 369.72 186.65" style="fill: rgb(38, 50, 56); transform-origin: 369.725px 199.905px;" id="el694applsc7t" class="animable"></polygon><g id="elnfrsqan2fii"><polygon points="369.72 186.65 396.24 213.16 343.21 213.16 369.72 186.65" style="fill: rgb(255, 255, 255); opacity: 0.5; transform-origin: 369.725px 199.905px;" class="animable"></polygon></g><g id="ely1pojyih2xp"><polygon points="369.72 186.65 374.96 213.16 356.28 213.16 369.72 186.65" style="fill: rgb(255, 255, 255); opacity: 0.1; transform-origin: 365.62px 199.905px;" class="animable"></polygon></g><g id="elg2tc3mb0z55"><rect x="343.21" y="213.16" width="53.03" height="3.12" style="fill: rgb(255, 255, 255); opacity: 0.5; transform-origin: 369.725px 214.72px; transform: rotate(180deg);" class="animable"></rect></g><g id="elw4h1q86emgq"><rect x="354.89" y="213.16" width="19.98" height="3.12" style="fill: rgb(255, 255, 255); opacity: 0.2; transform-origin: 364.88px 214.72px; transform: rotate(180deg);" class="animable"></rect></g><g id="el309j5miuax5"><polygon points="362.09 208.22 370.55 208.22 369.8 201.61 362.09 201.61 362.09 208.22" style="opacity: 0.3; transform-origin: 366.32px 204.915px;" class="animable"></polygon></g><g id="elxgn5a7apj8"><rect x="312.78" y="140.92" width="16.3" height="67.79" style="fill: rgb(141, 14, 201); transform-origin: 320.93px 174.815px; transform: rotate(135deg);" class="animable"></rect></g><g id="el3qpga516dwu"><rect x="312.78" y="140.92" width="16.3" height="67.79" style="fill: rgb(255, 255, 255); opacity: 0.7; transform-origin: 320.93px 174.815px; transform: rotate(135deg);" class="animable"></rect></g><path d="M339.58,206.31h0l10.8-10.8,7.36,7.36,2.21-2.22-57-57-2.22,2.22h0l-4,4h0l-1.1,1.11h0L291,155.53h0l-1.11,1.11Zm-42.89-54.24,8.61,8.6-4.57,4.57-8.61-8.6Zm33.18,42.31-8.61-8.6,4.57-4.57,8.61,8.6Zm5.67-3.46,8.61,8.61-4.57,4.57L331,195.49Zm-14.3-24.55,8.61,8.61-4,4-8.6-8.6Zm-5.12,2.91-8.61-8.61,4-4,8.61,8.6Zm14.84,6.8,8.6,8.61-4,4-8.6-8.61Zm-10.81,8.59-8.6-8.6,4.57-4.57,8.6,8.6ZM310.44,175l-8.6-8.61,4.57-4.57,8.6,8.61Zm-8.62-28,8.6,8.6-4,4L297.8,151Zm47.45,47.45-4,4-8.61-8.61,4-4Z" style="fill: rgb(141, 14, 201); transform-origin: 324.92px 174.98px;" id="el57qh6ksxrp3" class="animable"></path><g id="elqgqrr6xjvjh"><path d="M339.58,206.31h0l10.8-10.8,7.36,7.36,2.21-2.22-57-57-2.22,2.22h0l-4,4h0l-1.1,1.11h0L291,155.53h0l-1.11,1.11Zm-42.89-54.24,8.61,8.6-4.57,4.57-8.61-8.6Zm33.18,42.31-8.61-8.6,4.57-4.57,8.61,8.6Zm5.67-3.46,8.61,8.61-4.57,4.57L331,195.49Zm-14.3-24.55,8.61,8.61-4,4-8.6-8.6Zm-5.12,2.91-8.61-8.61,4-4,8.61,8.6Zm14.84,6.8,8.6,8.61-4,4-8.6-8.61Zm-10.81,8.59-8.6-8.6,4.57-4.57,8.6,8.6ZM310.44,175l-8.6-8.61,4.57-4.57,8.6,8.61Zm-8.62-28,8.6,8.6-4,4L297.8,151Zm47.45,47.45-4,4-8.61-8.61,4-4Z" style="fill: rgb(255, 255, 255); opacity: 0.4; transform-origin: 324.92px 174.98px;" class="animable"></path></g><g id="el5iju6cfib97"><rect x="394.34" y="201.12" width="16.3" height="67.79" style="fill: rgb(141, 14, 201); transform-origin: 402.49px 235.015px; transform: rotate(-45deg);" class="animable"></rect></g><g id="eli3l8vaxdn7k"><rect x="394.34" y="201.12" width="16.3" height="67.79" style="fill: rgb(255, 255, 255); opacity: 0.7; transform-origin: 402.49px 235.015px; transform: rotate(-45deg);" class="animable"></rect></g><path d="M383.84,203.52h0L373,214.32,365.68,207l-2.21,2.21,57,57,2.21-2.22h0l4-4h0l1.1-1.11h0l4.57-4.57h0l1.11-1.11Zm42.89,54.24-8.61-8.6,4.57-4.57,8.61,8.6Zm-33.18-42.31,8.61,8.6-4.57,4.57L389,220Zm-5.67,3.46-8.61-8.6,4.57-4.57,8.61,8.6Zm14.3,24.55-8.61-8.6,4-4,8.6,8.6Zm5.12-2.91,8.61,8.61-4,4-8.61-8.6Zm-14.84-6.8-8.6-8.61,4-4,8.6,8.6Zm10.81-8.59,8.6,8.61-4.57,4.57-8.6-8.61Zm9.71,9.71,8.6,8.61L417,248.05l-8.6-8.61Zm8.62,28-8.6-8.61,4-4,8.61,8.61Zm-47.45-47.46,4-4,8.61,8.61-4,4Z" style="fill: rgb(141, 14, 201); transform-origin: 398.465px 234.865px;" id="elua7xakvie" class="animable"></path><g id="elstxjhtvmsz"><path d="M383.84,203.52h0L373,214.32,365.68,207l-2.21,2.21,57,57,2.21-2.22h0l4-4h0l1.1-1.11h0l4.57-4.57h0l1.11-1.11Zm42.89,54.24-8.61-8.6,4.57-4.57,8.61,8.6Zm-33.18-42.31,8.61,8.6-4.57,4.57L389,220Zm-5.67,3.46-8.61-8.6,4.57-4.57,8.61,8.6Zm14.3,24.55-8.61-8.6,4-4,8.6,8.6Zm5.12-2.91,8.61,8.61-4,4-8.61-8.6Zm-14.84-6.8-8.6-8.61,4-4,8.6,8.6Zm10.81-8.59,8.6,8.61-4.57,4.57-8.6-8.61Zm9.71,9.71,8.6,8.61L417,248.05l-8.6-8.61Zm8.62,28-8.6-8.61,4-4,8.61,8.61Zm-47.45-47.46,4-4,8.61,8.61-4,4Z" style="fill: rgb(255, 255, 255); opacity: 0.4; transform-origin: 398.465px 234.865px;" class="animable"></path></g><g id="el49d0kqo6z9s"><rect x="323.46" y="211.8" width="16.3" height="67.79" style="fill: rgb(141, 14, 201); transform-origin: 331.61px 245.695px; transform: rotate(45deg);" class="animable"></rect></g><g id="elpdhtk8pu2c"><rect x="323.46" y="211.8" width="16.3" height="67.79" style="fill: rgb(255, 255, 255); opacity: 0.7; transform-origin: 331.61px 245.695px; transform: rotate(45deg);" class="animable"></rect></g><path d="M363.11,227.05h0L352.3,216.24l7.36-7.35-2.22-2.22-57,57,2.21,2.22h0l4,4h0l1.11,1.11h0l4.57,4.57h0l1.1,1.11Zm-54.25,42.88,8.61-8.6L322,265.9l-8.61,8.6Zm42.32-33.17-8.61,8.6L338,240.79l8.61-8.6Zm-3.46-5.68,8.6-8.6,4.57,4.57-8.6,8.6Zm-24.55,14.3,8.6-8.6,4,4-8.61,8.61Zm2.9,5.13-8.6,8.6-4-4,8.61-8.61Zm6.81-14.84,8.6-8.61,4,4-8.61,8.61Zm8.58,10.8-8.6,8.61-4.57-4.57,8.6-8.61Zm-9.71,9.71-8.6,8.61-4.57-4.57,8.6-8.61Zm-28,8.63,8.6-8.61,4,4-8.6,8.6Zm47.46-47.46,4,4-8.6,8.6-4-4Z" style="fill: rgb(141, 14, 201); transform-origin: 331.775px 241.675px;" id="elp47vqpb8gdp" class="animable"></path><g id="elxuttse1d5wr"><path d="M363.11,227.05h0L352.3,216.24l7.36-7.35-2.22-2.22-57,57,2.21,2.22h0l4,4h0l1.11,1.11h0l4.57,4.57h0l1.1,1.11Zm-54.25,42.88,8.61-8.6L322,265.9l-8.61,8.6Zm42.32-33.17-8.61,8.6L338,240.79l8.61-8.6Zm-3.46-5.68,8.6-8.6,4.57,4.57-8.6,8.6Zm-24.55,14.3,8.6-8.6,4,4-8.61,8.61Zm2.9,5.13-8.6,8.6-4-4,8.61-8.61Zm6.81-14.84,8.6-8.61,4,4-8.61,8.61Zm8.58,10.8-8.6,8.61-4.57-4.57,8.6-8.61Zm-9.71,9.71-8.6,8.61-4.57-4.57,8.6-8.61Zm-28,8.63,8.6-8.61,4,4-8.6,8.6Zm47.46-47.46,4,4-8.6,8.6-4-4Z" style="fill: rgb(255, 255, 255); opacity: 0.4; transform-origin: 331.775px 241.675px;" class="animable"></path></g><g id="elikyrefrk4j"><rect x="383.66" y="130.24" width="16.3" height="67.79" style="fill: rgb(141, 14, 201); transform-origin: 391.81px 164.135px; transform: rotate(-135deg);" class="animable"></rect></g><g id="elhg9dcpez8lo"><rect x="383.66" y="130.24" width="16.3" height="67.79" style="fill: rgb(255, 255, 255); opacity: 0.7; transform-origin: 391.81px 164.135px; transform: rotate(-135deg);" class="animable"></rect></g><path d="M360.31,182.78h0l10.81,10.8-7.36,7.35,2.22,2.22,57-57-2.21-2.22h0l-4-4h0l-1.11-1.11h0l-4.57-4.57h0l-1.1-1.11Zm54.25-42.88L406,148.5l-4.57-4.57,8.61-8.6Zm-42.32,33.17,8.61-8.6,4.57,4.57-8.61,8.6Zm3.46,5.68-8.6,8.61-4.57-4.57,8.6-8.61Zm24.55-14.3-8.6,8.6-4-4,8.61-8.61Zm-2.9-5.13,8.6-8.6,4,4-8.61,8.6Zm-6.81,14.84-8.6,8.61-4-4,8.61-8.6ZM382,163.36l8.6-8.61,4.57,4.57-8.6,8.61Zm9.71-9.71,8.6-8.61,4.57,4.57-8.6,8.61Zm28-8.63-8.6,8.61-4-4,8.6-8.6Zm-47.46,47.46-4-4,8.6-8.6,4,4Z" style="fill: rgb(141, 14, 201); transform-origin: 391.645px 168.145px;" id="elzzklzbpt2bm" class="animable"></path><g id="elm1ho3bw62c"><path d="M360.31,182.78h0l10.81,10.8-7.36,7.35,2.22,2.22,57-57-2.21-2.22h0l-4-4h0l-1.11-1.11h0l-4.57-4.57h0l-1.1-1.11Zm54.25-42.88L406,148.5l-4.57-4.57,8.61-8.6Zm-42.32,33.17,8.61-8.6,4.57,4.57-8.61,8.6Zm3.46,5.68-8.6,8.61-4.57-4.57,8.6-8.61Zm24.55-14.3-8.6,8.6-4-4,8.61-8.61Zm-2.9-5.13,8.6-8.6,4,4-8.61,8.6Zm-6.81,14.84-8.6,8.61-4-4,8.61-8.6ZM382,163.36l8.6-8.61,4.57,4.57-8.6,8.61Zm9.71-9.71,8.6-8.61,4.57,4.57-8.6,8.61Zm28-8.63-8.6,8.61-4-4,8.6-8.6Zm-47.46,47.46-4-4,8.6-8.6,4,4Z" style="fill: rgb(255, 255, 255); opacity: 0.4; transform-origin: 391.645px 168.145px;" class="animable"></path></g><circle cx="360.74" cy="204.92" r="6.48" style="fill: rgb(141, 14, 201); transform-origin: 360.74px 204.92px;" id="elkbohwpkowql" class="animable"></circle><g id="ell2cdm2fkuv"><circle cx="360.74" cy="204.92" r="6.48" style="fill: rgb(255, 255, 255); opacity: 0.7; transform-origin: 360.74px 204.92px;" class="animable"></circle></g><g id="el86kzneflul6"><path d="M354.26,204.92a6.48,6.48,0,1,0,6.49-6.49A6.48,6.48,0,0,0,354.26,204.92Zm.18,0a5,5,0,1,1,5,5A5,5,0,0,1,354.44,204.92Z" style="opacity: 0.2; transform-origin: 360.74px 204.91px;" class="animable"></path></g><g id="eleikvfculcbk"><rect x="359.97" y="236.49" width="12.68" height="9.95" style="fill: rgb(255, 255, 255); transform-origin: 366.31px 241.465px; transform: rotate(90deg);" class="animable"></rect></g><g id="el2h2e1trcfqc"><rect x="362.83" y="236.61" width="6.98" height="9.71" style="opacity: 0.3; transform-origin: 366.32px 241.465px; transform: rotate(180deg);" class="animable"></rect></g><g id="el60lqad1te4n"><rect x="338.2" y="304.34" width="63.06" height="84.35" style="fill: rgb(141, 14, 201); transform-origin: 369.73px 346.515px; transform: rotate(180deg);" class="animable"></rect></g><g id="ely2l9arurf3h"><rect x="338.19" y="304.35" width="63.06" height="84.35" style="fill: rgb(255, 255, 255); opacity: 0.7; transform-origin: 369.72px 346.525px;" class="animable"></rect></g><g id="elaf4919qiq1b"><rect x="352.15" y="304.34" width="25.63" height="84.35" style="fill: rgb(255, 255, 255); opacity: 0.2; transform-origin: 364.965px 346.515px; transform: rotate(180deg);" class="animable"></rect></g><g id="elnjzcy0482pg"><g style="opacity: 0.05; transform-origin: 369.98px 332.485px;" class="animable"><rect x="338.19" y="317.02" width="7.14" height="3.41" id="elhftmtjmo3dj" class="animable" style="transform-origin: 341.76px 318.725px;"></rect><rect x="338.19" y="321.77" width="2.29" height="3.41" id="elz772bmrqvmm" class="animable" style="transform-origin: 339.335px 323.475px;"></rect><rect x="342.16" y="321.77" width="8.01" height="3.41" id="elveuf22ytqjl" class="animable" style="transform-origin: 346.165px 323.475px;"></rect><rect x="338.19" y="326.51" width="7.14" height="3.4" id="elbefy1ose5" class="animable" style="transform-origin: 341.76px 328.21px;"></rect><rect x="347.01" y="326.51" width="8.01" height="3.41" id="el8tkqy586oan" class="animable" style="transform-origin: 351.015px 328.215px;"></rect><rect x="338.19" y="331.25" width="2.29" height="3.41" id="elxej7ogeltcg" class="animable" style="transform-origin: 339.335px 332.955px;"></rect><rect x="342.16" y="331.25" width="8.01" height="3.41" id="elut988kbnv9r" class="animable" style="transform-origin: 346.165px 332.955px;"></rect><rect x="395.68" y="315.74" width="5.58" height="3.4" id="el1po6zrtoc5f" class="animable" style="transform-origin: 398.47px 317.44px;"></rect><rect x="368.31" y="319.39" width="8.01" height="3.41" id="el6i7zri0fqcs" class="animable" style="transform-origin: 372.315px 321.095px;"></rect><rect x="390.83" y="320.48" width="8.01" height="3.41" id="eliar98z6mrk" class="animable" style="transform-origin: 394.835px 322.185px;"></rect><rect x="363.47" y="324.14" width="8.01" height="3.41" id="ell41zfu166y" class="animable" style="transform-origin: 367.475px 325.845px;"></rect><rect x="373.16" y="324.14" width="8.01" height="3.41" id="elnemw8sk85n9" class="animable" style="transform-origin: 377.165px 325.845px;"></rect><rect x="351.42" y="308.31" width="8.01" height="3.41" id="elibww5j6det8" class="animable" style="transform-origin: 355.425px 310.015px;"></rect><rect x="356.27" y="304.35" width="8.01" height="2.63" id="elgbjtwxtybe" class="animable" style="transform-origin: 360.275px 305.665px;"></rect><rect x="346.58" y="304.35" width="8.01" height="2.63" id="elo6weq98c1l" class="animable" style="transform-origin: 350.585px 305.665px;"></rect><rect x="382.92" y="308.98" width="8.01" height="3.41" id="el2sfokh9frnu" class="animable" style="transform-origin: 386.925px 310.685px;"></rect><rect x="387.77" y="304.24" width="8.01" height="3.41" id="elhjckm3fyxp" class="animable" style="transform-origin: 391.775px 305.945px;"></rect><rect x="378.08" y="304.24" width="8.01" height="3.41" id="el6n6zoqobtlg" class="animable" style="transform-origin: 382.085px 305.945px;"></rect><rect x="395.68" y="325.22" width="5.58" height="3.41" id="el8w40781fzfd" class="animable" style="transform-origin: 398.47px 326.925px;"></rect><rect x="390.83" y="329.96" width="8.01" height="3.41" id="elk7kw1s861j" class="animable" style="transform-origin: 394.835px 331.665px;"></rect><rect x="384.06" y="343.09" width="8.01" height="3.41" id="el2izj4h87u03" class="animable" style="transform-origin: 388.065px 344.795px;"></rect><rect x="393.76" y="343.09" width="8.01" height="3.41" id="elllcbgw4t3p" class="animable" style="transform-origin: 397.765px 344.795px;"></rect><rect x="379.22" y="347.83" width="8.01" height="3.41" id="eltxmpvjq8p5e" class="animable" style="transform-origin: 383.225px 349.535px;"></rect><rect x="388.91" y="347.83" width="8.01" height="3.41" id="elr05axbs9yoi" class="animable" style="transform-origin: 392.915px 349.535px;"></rect><rect x="374.37" y="352.57" width="8.01" height="3.41" id="elecnsphc88cq" class="animable" style="transform-origin: 378.375px 354.275px;"></rect><rect x="384.06" y="352.57" width="8.01" height="3.41" id="elwun2k883aao" class="animable" style="transform-origin: 388.065px 354.275px;"></rect><rect x="393.76" y="352.57" width="8.01" height="3.41" id="el2wd3h0jcy71" class="animable" style="transform-origin: 397.765px 354.275px;"></rect><rect x="379.22" y="357.32" width="8.01" height="3.41" id="elowsh4h510k7" class="animable" style="transform-origin: 383.225px 359.025px;"></rect><rect x="388.91" y="357.32" width="8.01" height="3.41" id="el86xrn6x9rvl" class="animable" style="transform-origin: 392.915px 359.025px;"></rect><rect x="398.6" y="357.31" width="2.65" height="3.41" id="elgjwjukjb58" class="animable" style="transform-origin: 399.925px 359.015px;"></rect><rect x="338.97" y="342.87" width="8.01" height="3.41" id="elhcz86u4db7n" class="animable" style="transform-origin: 342.975px 344.575px;"></rect><rect x="348.66" y="342.87" width="8.01" height="3.41" id="elmzut1a4ksk" class="animable" style="transform-origin: 352.665px 344.575px;"></rect><rect x="338.19" y="347.61" width="3.94" height="3.41" id="elz5yeb67h9q" class="animable" style="transform-origin: 340.16px 349.315px;"></rect><rect x="343.81" y="347.61" width="8.01" height="3.41" id="elv7o3ehyadz" class="animable" style="transform-origin: 347.815px 349.315px;"></rect><rect x="353.5" y="347.61" width="8.01" height="3.41" id="el1ybvfoxbcoa" class="animable" style="transform-origin: 357.505px 349.315px;"></rect><rect x="338.97" y="352.35" width="8.01" height="3.41" id="elfqz9x50h4mb" class="animable" style="transform-origin: 342.975px 354.055px;"></rect><rect x="348.66" y="352.35" width="8.01" height="3.41" id="el4ebrq8pfp2n" class="animable" style="transform-origin: 352.665px 354.055px;"></rect><rect x="338.19" y="357.1" width="3.94" height="3.41" id="el3izwinibtsj" class="animable" style="transform-origin: 340.16px 358.805px;"></rect><rect x="343.81" y="357.1" width="8.01" height="3.41" id="eldud6yd8ql8u" class="animable" style="transform-origin: 347.815px 358.805px;"></rect><rect x="353.5" y="357.1" width="8.01" height="3.41" id="elgrjmtuib0ai" class="animable" style="transform-origin: 357.505px 358.805px;"></rect></g></g><g id="el93jr95wuxzb"><rect x="383.83" y="319.38" width="12.68" height="8.64" style="fill: rgb(255, 255, 255); transform-origin: 390.17px 323.7px; transform: rotate(90deg);" class="animable"></rect></g><g id="elmpb57aiks6"><rect x="387.14" y="318.84" width="6.06" height="9.71" style="opacity: 0.3; transform-origin: 390.17px 323.695px; transform: rotate(180deg);" class="animable"></rect></g><path d="M331.46,292.72v10h-1.14v2.64h77.09v-2.64h-1.14v-10h1.14v-1.47H330.32v1.47Zm49,10h-11v-10h11Zm1.28-10h11v10h-11Zm-13.53,10h-11v-10h11Zm-12.26,0H345v-10h11Zm49,0H394v-10h11Zm-72.27-10h11v10h-11Z" style="fill: rgb(38, 50, 56); transform-origin: 368.865px 298.305px;" id="ely0hha05c71" class="animable"></path><g id="el0ycsoovqm7q"><path d="M331.46,292.72v10h-1.14v2.64h77.09v-2.64h-1.14v-10h1.14v-1.47H330.32v1.47Zm49,10h-11v-10h11Zm1.28-10h11v10h-11Zm-13.53,10h-11v-10h11Zm-12.26,0H345v-10h11Zm49,0H394v-10h11Zm-72.27-10h11v10h-11Z" style="fill: rgb(255, 255, 255); opacity: 0.6; transform-origin: 368.865px 298.305px;" class="animable"></path></g><g id="elfcv7v18x04d"><polygon points="330.32 292.72 330.32 291.25 343.7 291.25 343.7 292.72 332.73 292.72 332.73 302.7 343.7 302.7 343.7 305.35 330.32 305.35 330.32 302.7 331.46 302.7 331.46 292.72 330.32 292.72" style="opacity: 0.2; transform-origin: 337.01px 298.3px;" class="animable"></polygon></g><g id="el91asj87vc1o"><path d="M381.89,305.35h25.52v-2.64h-1.14v-10h1.14v-1.47H381.89v1.47h10.85v10H381.89ZM394,292.72h11v10H394Z" style="opacity: 0.2; transform-origin: 394.65px 298.295px;" class="animable"></path></g><g id="elaj16bnmji3r"><rect x="338.13" y="320.45" width="12.68" height="6.5" style="fill: rgb(255, 255, 255); transform-origin: 344.47px 323.7px; transform: rotate(90deg);" class="animable"></rect></g><g id="elydgjffol0j"><rect x="342.19" y="318.84" width="4.56" height="9.71" style="opacity: 0.3; transform-origin: 344.47px 323.695px; transform: rotate(180deg);" class="animable"></rect></g><g id="elfrgsudcn0rf"><rect x="356.71" y="354.09" width="16.45" height="34.61" style="fill: rgb(255, 255, 255); transform-origin: 364.935px 371.395px; transform: rotate(180deg);" class="animable"></rect></g><g id="eluc6mxxaai7"><rect x="358.46" y="355.85" width="12.95" height="32.84" style="opacity: 0.3; transform-origin: 364.935px 372.27px; transform: rotate(180deg);" class="animable"></rect></g></g><g id="freepik--Floor--inject-1" class="animable" style="transform-origin: 250px 382.917px;"><path d="M442.35,388.78s9-8,6.34-9.3-6,6-6.34,4.9,1.77-11.21-3.25-10.51,0,10.51,0,10.51-3.72-4-5-3.39,4,7.79,4,7.79Z" style="fill: rgb(141, 14, 201); transform-origin: 441.541px 381.308px;" id="ellft280cxftf" class="animable"></path><g id="elhrsnna9myr"><path d="M442.35,388.78s9-8,6.34-9.3-6,6-6.34,4.9,1.77-11.21-3.25-10.51,0,10.51,0,10.51-3.72-4-5-3.39,4,7.79,4,7.79Z" style="fill: rgb(255, 255, 255); opacity: 0.5; transform-origin: 441.541px 381.308px;" class="animable"></path></g><path d="M192.56,388.78s-9-8-6.33-9.3,6,6,6.33,4.9-1.76-11.21,3.25-10.51,0,10.51,0,10.51,3.72-4,5-3.39-4,7.79-4,7.79Z" style="fill: rgb(141, 14, 201); transform-origin: 193.373px 381.308px;" id="elzen6t1p8pul" class="animable"></path><path d="M306.73,390s2.44-8.18-2.5-9.81-7.86-5.45-7.69-9.77-5-8.53-8.93-4.48-3.38-3.11-8.57-4.86-9.6,2.49-8.18,6.35-3.7,6.27-9.84,3-12.9,2.69-11.6,7.37.24,5.19-3.65,3.63-10.83,2.86-8.39,8.58S306.73,390,306.73,390Z" style="fill: rgb(141, 14, 201); transform-origin: 272.102px 376.612px;" id="elxknxmfvxrrr" class="animable"></path><path d="M153.38,390.88c4.39-3,.44-8-3.94-8.62s-8.79-5.82-9-9.15-8.09-13.57-20.36-7.25-8.54.93-17.42-.84-14.48,3.33-10.58,7.17c0,0-8.92-1.52-12.59,4.13s0,9.15,0,9.15-16.77-.34-15.26,6.7S153.38,390.88,153.38,390.88Z" style="fill: rgb(141, 14, 201); transform-origin: 109.714px 379.419px;" id="elh1gesghenk" class="animable"></path><path d="M412,387.39s-8-15.52-6-17,5.94,13,6,11.84-.22-20.86,3.45-20.08,0,18.95,0,18.95,4.94-9.28,6.88-8.58-5.71,11.74-5.71,11.74,4.56-2.76,5.71-2.55-5.71,5.72-5.71,5.72Z" style="fill: rgb(141, 14, 201); transform-origin: 414.162px 374.779px;" id="elwom1l5kteag" class="animable"></path><path d="M67.74,389.28s8-15.52,6-17-6,13-6,11.84S68,363.22,64.29,364s0,18.95,0,18.95-5-9.28-6.88-8.58,5.71,11.74,5.71,11.74-4.57-2.76-5.71-2.55,5.71,5.72,5.71,5.72Z" style="fill: rgb(141, 14, 201); transform-origin: 65.5858px 376.629px;" id="eluhlqgezm4wk" class="animable"></path><g id="elyq55ivztrke"><path d="M192.56,388.78s-9-8-6.33-9.3,6,6,6.33,4.9-1.76-11.21,3.25-10.51,0,10.51,0,10.51,3.72-4,5-3.39-4,7.79-4,7.79Z" style="fill: rgb(255, 255, 255); opacity: 0.5; transform-origin: 193.373px 381.308px;" class="animable"></path></g><g id="elkvu3bq74bz"><path d="M306.73,390s2.44-8.18-2.5-9.81-7.86-5.45-7.69-9.77-5-8.53-8.93-4.48-3.38-3.11-8.57-4.86-9.6,2.49-8.18,6.35-3.7,6.27-9.84,3-12.9,2.69-11.6,7.37.24,5.19-3.65,3.63-10.83,2.86-8.39,8.58S306.73,390,306.73,390Z" style="fill: rgb(255, 255, 255); opacity: 0.5; transform-origin: 272.102px 376.612px;" class="animable"></path></g><g id="eldo8nq2zb40h"><path d="M153.38,390.88c4.39-3,.44-8-3.94-8.62s-8.79-5.82-9-9.15-8.09-13.57-20.36-7.25-8.54.93-17.42-.84-14.48,3.33-10.58,7.17c0,0-8.92-1.52-12.59,4.13s0,9.15,0,9.15-16.77-.34-15.26,6.7S153.38,390.88,153.38,390.88Z" style="fill: rgb(255, 255, 255); opacity: 0.5; transform-origin: 109.714px 379.419px;" class="animable"></path></g><g id="elqpmywriu66"><path d="M412,387.39s-8-15.52-6-17,5.94,13,6,11.84-.22-20.86,3.45-20.08,0,18.95,0,18.95,4.94-9.28,6.88-8.58-5.71,11.74-5.71,11.74,4.56-2.76,5.71-2.55-5.71,5.72-5.71,5.72Z" style="fill: rgb(255, 255, 255); opacity: 0.5; transform-origin: 414.162px 374.779px;" class="animable"></path></g><g id="elae3pr4xwqx"><path d="M67.74,389.28s8-15.52,6-17-6,13-6,11.84S68,363.22,64.29,364s0,18.95,0,18.95-5-9.28-6.88-8.58,5.71,11.74,5.71,11.74-4.57-2.76-5.71-2.55,5.71,5.72,5.71,5.72Z" style="fill: rgb(255, 255, 255); opacity: 0.5; transform-origin: 65.5858px 376.629px;" class="animable"></path></g><path d="M47.82,386.15H452.18a1.89,1.89,0,0,1,1.89,1.89v17.12a0,0,0,0,1,0,0H45.93a0,0,0,0,1,0,0V388A1.89,1.89,0,0,1,47.82,386.15Z" style="fill: rgb(38, 50, 56); transform-origin: 250px 395.655px;" id="elld1l7mg81fi" class="animable"></path><g id="el10p10aji65t"><path d="M47.82,386.15H452.18a1.89,1.89,0,0,1,1.89,1.89v17.12a0,0,0,0,1,0,0H45.93a0,0,0,0,1,0,0V388A1.89,1.89,0,0,1,47.82,386.15Z" style="fill: rgb(255, 255, 255); opacity: 0.8; transform-origin: 250px 395.655px;" class="animable"></path></g><g id="elfupxevmclxe"><rect x="425.33" y="389.95" width="26.73" height="12.88" style="fill: rgb(255, 255, 255); opacity: 0.2; transform-origin: 438.695px 396.39px;" class="animable"></rect></g><g id="eleasboxpo0n"><rect x="397.18" y="388.73" width="26.73" height="12.88" style="fill: rgb(255, 255, 255); opacity: 0.2; transform-origin: 410.545px 395.17px;" class="animable"></rect></g><g id="eli8f9tvw0nug"><rect x="378.64" y="393.42" width="17.4" height="8.19" style="fill: rgb(255, 255, 255); opacity: 0.2; transform-origin: 387.34px 397.515px;" class="animable"></rect></g><g id="elmq39a3ivaar"><rect x="52.5" y="394.47" width="17.4" height="8.19" style="fill: rgb(255, 255, 255); opacity: 0.2; transform-origin: 61.2px 398.565px;" class="animable"></rect></g><g id="elprgzmojk34"><rect x="358.95" y="389.32" width="18.29" height="11.21" style="fill: rgb(255, 255, 255); opacity: 0.2; transform-origin: 368.095px 394.925px;" class="animable"></rect></g><g id="elsu6xq6q2hu"><rect x="345.16" y="387.81" width="12.45" height="11.21" style="fill: rgb(255, 255, 255); opacity: 0.2; transform-origin: 351.385px 393.415px;" class="animable"></rect></g><g id="elwavu58xc3pp"><rect x="71.92" y="389.95" width="12.45" height="11.21" style="fill: rgb(255, 255, 255); opacity: 0.2; transform-origin: 78.145px 395.555px;" class="animable"></rect></g><g id="el006jap4pzakdk"><rect x="292.72" y="389.95" width="12.45" height="11.21" style="fill: rgb(255, 255, 255); opacity: 0.2; transform-origin: 298.945px 395.555px;" class="animable"></rect></g><g id="eltfeuex7ekgf"><rect x="305.79" y="387.81" width="12.45" height="7.75" style="fill: rgb(255, 255, 255); opacity: 0.2; transform-origin: 312.015px 391.685px;" class="animable"></rect></g><g id="elcefsvo8zti"><rect x="323.39" y="390.78" width="20.49" height="11.21" style="fill: rgb(255, 255, 255); opacity: 0.2; transform-origin: 333.635px 396.385px;" class="animable"></rect></g><g id="elyeutki4jx6"><rect x="270.81" y="389.32" width="20.49" height="11.21" style="fill: rgb(255, 255, 255); opacity: 0.2; transform-origin: 281.055px 394.925px;" class="animable"></rect></g><g id="elmfow2cpoz18"><rect x="381.63" y="388.73" width="13.19" height="3.61" style="fill: rgb(255, 255, 255); opacity: 0.2; transform-origin: 388.225px 390.535px;" class="animable"></rect></g><g id="el69uhzea3asf"><rect x="52.5" y="388.98" width="13.19" height="3.61" style="fill: rgb(255, 255, 255); opacity: 0.2; transform-origin: 59.095px 390.785px;" class="animable"></rect></g><g id="elw50wrgd1r0a"><rect x="307.79" y="397.22" width="13.19" height="3.61" style="fill: rgb(255, 255, 255); opacity: 0.2; transform-origin: 314.385px 399.025px;" class="animable"></rect></g><g id="ellttafyhr84h"><rect x="242.28" y="389.95" width="26.73" height="12.88" style="fill: rgb(255, 255, 255); opacity: 0.2; transform-origin: 255.645px 396.39px;" class="animable"></rect></g><g id="el0gisg4wwkj7w"><rect x="214.12" y="388.73" width="26.73" height="12.88" style="fill: rgb(255, 255, 255); opacity: 0.2; transform-origin: 227.485px 395.17px;" class="animable"></rect></g><g id="el5vyd5puwwyb"><rect x="195.58" y="393.42" width="17.4" height="8.19" style="fill: rgb(255, 255, 255); opacity: 0.2; transform-origin: 204.28px 397.515px;" class="animable"></rect></g><g id="els6f8dzf1f5"><rect x="175.89" y="389.32" width="18.29" height="11.21" style="fill: rgb(255, 255, 255); opacity: 0.2; transform-origin: 185.035px 394.925px;" class="animable"></rect></g><g id="elz5r3ep1uw1"><rect x="162.1" y="387.81" width="12.45" height="11.21" style="fill: rgb(255, 255, 255); opacity: 0.2; transform-origin: 168.325px 393.415px;" class="animable"></rect></g><g id="elabwtbve1y8h"><rect x="109.66" y="389.95" width="12.45" height="11.21" style="fill: rgb(255, 255, 255); opacity: 0.2; transform-origin: 115.885px 395.555px;" class="animable"></rect></g><g id="elv0t2r8zm1s"><rect x="122.73" y="387.81" width="12.45" height="7.75" style="fill: rgb(255, 255, 255); opacity: 0.2; transform-origin: 128.955px 391.685px;" class="animable"></rect></g><g id="els9qpqgng35m"><rect x="140.33" y="390.78" width="20.49" height="11.21" style="fill: rgb(255, 255, 255); opacity: 0.2; transform-origin: 150.575px 396.385px;" class="animable"></rect></g><g id="elbgnnughethn"><rect x="87.75" y="389.32" width="20.49" height="11.21" style="fill: rgb(255, 255, 255); opacity: 0.2; transform-origin: 97.995px 394.925px;" class="animable"></rect></g><g id="elyj7hx1syejk"><rect x="198.57" y="388.73" width="13.19" height="3.61" style="fill: rgb(255, 255, 255); opacity: 0.2; transform-origin: 205.165px 390.535px;" class="animable"></rect></g><g id="elts6ujlqibam"><rect x="124.73" y="397.22" width="13.19" height="3.61" style="fill: rgb(255, 255, 255); opacity: 0.2; transform-origin: 131.325px 399.025px;" class="animable"></rect></g></g><g id="freepik--Truck--inject-1" class="animable animator-active" style="transform-origin: 228.855px 338.685px;"><path d="M143.2,321.11a1.54,1.54,0,1,0,1.52-1.33A1.43,1.43,0,0,0,143.2,321.11Z" style="fill: rgb(38, 50, 56); transform-origin: 144.726px 321.318px;" id="elj7o7z2y3ovb" class="animable"></path><g id="elk3j4kmohxnr"><path d="M143.2,321.11a1.54,1.54,0,1,0,1.52-1.33A1.43,1.43,0,0,0,143.2,321.11Z" style="fill: rgb(255, 255, 255); isolation: isolate; opacity: 0.2; transform-origin: 144.726px 321.318px;" class="animable"></path></g><path d="M137.69,310.49c0,3.06-1.95,5.55-4.36,5.55s-4.37-2.49-4.37-5.55,2-5.55,4.37-5.55S137.69,307.42,137.69,310.49Z" style="fill: rgb(38, 50, 56); transform-origin: 133.325px 310.49px;" id="el9cyfsjgsfv" class="animable"></path><g id="el7xogdjk6oe8"><path d="M137.69,310.49c0,3.06-1.95,5.55-4.37,5.55a3.44,3.44,0,0,1-.46,0c-2.18-.3-3.9-2.65-3.9-5.52s1.72-5.22,3.9-5.52a3.44,3.44,0,0,1,.46,0C135.74,304.94,137.69,307.43,137.69,310.49Z" style="fill: rgb(255, 255, 255); isolation: isolate; opacity: 0.5; transform-origin: 133.325px 310.52px;" class="animable"></path></g><g id="eldjb8c6syk6k"><path d="M136.76,310.49c0,2.87-1.72,5.22-3.9,5.52-2.18-.3-3.9-2.65-3.9-5.52s1.72-5.22,3.9-5.52C135,305.27,136.76,307.62,136.76,310.49Z" style="fill: rgb(255, 255, 255); isolation: isolate; opacity: 0.5; transform-origin: 132.86px 310.49px;" class="animable"></path></g><path d="M143,321.4h1.56a.47.47,0,0,0,0-.94H143a2.6,2.6,0,0,1-2-.9l-6-6.95a.46.46,0,0,0-.66-.05.47.47,0,0,0,0,.66l6,6.95A3.54,3.54,0,0,0,143,321.4Z" style="fill: rgb(38, 50, 56); transform-origin: 139.617px 316.922px;" id="el8yt5caabpk4" class="animable"></path><g id="el0m5fumidduw"><g style="isolation: isolate; opacity: 0.5; transform-origin: 139.617px 316.922px;" class="animable"><path d="M143,321.4h1.56a.47.47,0,0,0,0-.94H143a2.6,2.6,0,0,1-2-.9l-6-6.95a.46.46,0,0,0-.66-.05.47.47,0,0,0,0,.66l6,6.95A3.54,3.54,0,0,0,143,321.4Z" style="fill: rgb(255, 255, 255); transform-origin: 139.617px 316.922px;" id="elkv1gr6hk3ri" class="animable"></path></g></g><path d="M272.51,361.42H262.25c-11.41,0-20.66,12.78-20.66,28.54s9.25,28.54,20.66,28.54h10.26c11.41,0,20.66-12.78,20.66-28.54S283.92,361.42,272.51,361.42Z" id="el46ocrbqdvzh" class="animable" style="transform-origin: 267.38px 389.96px;"></path><g id="elghui8oip9vg"><path d="M275.75,363.44c-9.53,0-17.26,11.87-17.26,26.52s7.73,26.52,17.26,26.52S293,404.6,293,390,285.28,363.44,275.75,363.44Z" style="fill: rgb(255, 255, 255); opacity: 0.1; transform-origin: 275.745px 389.96px;" class="animable"></path></g><g id="el7wp60kgdaja"><path d="M277.24,375.63c-5.15,0-9.33,6.41-9.33,14.33s4.18,14.33,9.33,14.33,9.32-6.42,9.32-14.33S282.39,375.63,277.24,375.63Z" style="fill: rgb(38, 50, 56); opacity: 0.6; transform-origin: 277.235px 389.96px;" class="animable"></path></g><path d="M107.58,361.42H97.32c-11.41,0-20.65,12.78-20.65,28.54s9.24,28.54,20.65,28.54h10.26c11.41,0,20.66-12.78,20.66-28.54S119,361.42,107.58,361.42Z" id="elxhsd28buqr8" class="animable" style="transform-origin: 102.455px 389.96px;"></path><g id="eltuif8uw0iz"><path d="M110.82,363.44c-9.53,0-17.26,11.87-17.26,26.52s7.73,26.52,17.26,26.52S128.07,404.6,128.07,390,120.35,363.44,110.82,363.44Z" style="fill: rgb(255, 255, 255); opacity: 0.1; transform-origin: 110.815px 389.96px;" class="animable"></path></g><g id="el8ekagtlq6zw"><path d="M112.31,375.63c-5.15,0-9.32,6.41-9.32,14.33s4.17,14.33,9.32,14.33,9.33-6.42,9.33-14.33S117.46,375.63,112.31,375.63Z" style="fill: rgb(38, 50, 56); opacity: 0.6; transform-origin: 112.315px 389.96px;" class="animable"></path></g><path d="M107.08,398.5a13,13,0,0,0,10,9.16c8.1,1.55,15.55-3.37,15.55-3.37h12.58s2,3.37,10.23,3.37,17.15-3.23,17.15-3.23h44.11l5.21,3.23h45.51l7.26-3.37h20.8s5.88,7,14.76.14h52.91l6.54-2.77h5.81s6.52-15.29,1.34-31.13-45.51-23.12-45.51-23.12l-213.66,3.48Z" id="elz01yobiij7r" class="animable" style="transform-origin: 242.96px 377.686px;"></path><path d="M388,329.77v69.81H377.43a44.89,44.89,0,0,0,1.22-10.44c0-19.67-12.59-35.61-28.12-35.61s-28.13,15.94-28.13,35.61a44.36,44.36,0,0,0,1.23,10.44H289.35V329.77Z" style="fill: rgb(141, 14, 201); transform-origin: 338.675px 364.675px;" id="eliszp16n9ebe" class="animable"></path><g id="el51yugmcewwh"><path d="M388,329.77v69.81H377.43a44.89,44.89,0,0,0,1.22-10.44c0-19.67-12.59-35.61-28.12-35.61s-28.13,15.94-28.13,35.61a44.36,44.36,0,0,0,1.23,10.44H289.35V329.77Z" style="fill: rgb(38, 50, 56); opacity: 0.4; transform-origin: 338.675px 364.675px;" class="animable"></path></g><rect x="278.99" y="324.91" width="111.96" height="7.06" rx="3.5" style="fill: rgb(141, 14, 201); transform-origin: 334.97px 328.44px;" id="eli43c0g0ypa" class="animable"></rect><g id="eld56rgy56ot8"><rect x="278.99" y="324.91" width="111.96" height="7.06" rx="3.5" style="fill: rgb(38, 50, 56); opacity: 0.2; transform-origin: 334.97px 328.44px;" class="animable"></rect></g><path d="M294.78,391.69,244,393.17s-19.24-38.49-44.9-47.86-61.18-30.09-61.18-30.09,15.29-37.85,24.18-45.25a16.68,16.68,0,0,1,2.19-1.51h0c11.31-6.67,42.78-11.61,83.64-8.85,13.45.9,22.77,4.45,25.66,8a11.37,11.37,0,0,1,1.07,1.64c5.83,10.48,10.76,45,10.76,45s5.44,3.95,8.39,14.81S294.78,391.69,294.78,391.69Z" style="fill: rgb(141, 14, 201); transform-origin: 216.675px 326px;" id="elzq0ity2eg9" class="animable"></path><path d="M142.21,312.51s14.08-34.88,19.24-37.49c11-5.55,64.94-5,72.4-1l-8,41.45S182.54,308.07,142.21,312.51Z" style="fill: rgb(38, 50, 56); transform-origin: 188.03px 293.203px;" id="elwkhh3xcdl4" class="animable"></path><path d="M229.16,316.21s7.9-41.31,9.13-42.79,32.07-.49,33.55.49,8.38,39.83,8.38,39.83S252.84,313.49,229.16,316.21Z" style="fill: rgb(38, 50, 56); transform-origin: 254.69px 294.438px;" id="ely2v5q7z9as" class="animable"></path><path d="M207.82,361.42H197.55c-11.41,0-20.65,12.78-20.65,28.54s9.24,28.54,20.65,28.54h10.27c11.4,0,20.65-12.78,20.65-28.54S219.22,361.42,207.82,361.42Z" id="el8w3lqdxz44x" class="animable" style="transform-origin: 202.685px 389.96px;"></path><g id="elgm7kd7r1n7"><path d="M211.05,363.44c-9.53,0-17.26,11.87-17.26,26.52s7.73,26.52,17.26,26.52S228.3,404.6,228.3,390,220.58,363.44,211.05,363.44Z" style="fill: rgb(255, 255, 255); opacity: 0.2; transform-origin: 211.045px 389.96px;" class="animable"></path></g><g id="el8az9wztf0y8"><path d="M212.54,375.63c-5.15,0-9.32,6.41-9.32,14.33s4.17,14.33,9.32,14.33,9.33-6.42,9.33-14.33S217.69,375.63,212.54,375.63Z" style="fill: rgb(255, 255, 255); opacity: 0.2; transform-origin: 212.545px 389.96px;" class="animable"></path></g><g id="el175lc37c2v6"><path d="M209,382.79c-2.58,0-4.66,3.21-4.66,7.17s2.08,7.16,4.66,7.16,4.66-3.2,4.66-7.16S211.6,382.79,209,382.79Z" style="fill: rgb(255, 255, 255); isolation: isolate; opacity: 0.7; transform-origin: 209px 389.955px;" class="animable"></path></g><path d="M350.93,361.42H340.67C329.26,361.42,320,374.2,320,390s9.24,28.54,20.65,28.54h10.26c11.41,0,20.66-12.78,20.66-28.54S362.34,361.42,350.93,361.42Z" id="elrv0sxrts85o" class="animable" style="transform-origin: 345.785px 389.98px;"></path><g id="els99crg9rei"><path d="M354.17,363.44c-9.53,0-17.26,11.87-17.26,26.52s7.73,26.52,17.26,26.52S371.42,404.6,371.42,390,363.7,363.44,354.17,363.44Z" style="fill: rgb(255, 255, 255); opacity: 0.2; transform-origin: 354.165px 389.96px;" class="animable"></path></g><g id="elxh2enmbu8km"><path d="M355.66,375.63c-5.15,0-9.32,6.41-9.32,14.33s4.17,14.33,9.32,14.33S365,397.87,365,390,360.81,375.63,355.66,375.63Z" style="fill: rgb(255, 255, 255); opacity: 0.2; transform-origin: 355.67px 389.96px;" class="animable"></path></g><g id="eln4e48ebbcs"><path d="M352.1,382.79c-2.45,0-4.45,3.06-4.45,6.84s2,6.83,4.45,6.83,4.45-3.06,4.45-6.83S354.56,382.79,352.1,382.79Z" style="fill: rgb(255, 255, 255); isolation: isolate; opacity: 0.7; transform-origin: 352.1px 389.625px;" class="animable"></path></g><path d="M70.3,393.94s-3.91-40.85,13.34-51.4,40.93-9.6,40.93-9.6l3.67,63.52Z" style="fill: rgb(141, 14, 201); transform-origin: 99.0798px 364.689px;" id="el00oe8y62n48j" class="animable"></path><g id="elitfy9i9ahg"><path d="M70.3,393.94s-3.91-40.85,13.34-51.4,40.93-9.6,40.93-9.6l3.67,63.52Z" style="fill: rgb(38, 50, 56); opacity: 0.2; transform-origin: 99.0798px 364.689px;" class="animable"></path></g><g id="el6p0j8bups3r"><path d="M93.24,338.55a32.64,32.64,0,0,0-3.89,9.82c-1.56,6.41,0,38,0,38s-13.81,3.27-16.49-3.48S69.55,346.1,93.24,338.55Z" style="fill: rgb(255, 255, 255); opacity: 0.2; transform-origin: 82.4078px 362.856px;" class="animable"></path></g><g id="el0znfnb08bt"><ellipse cx="81.42" cy="357.83" rx="12.17" ry="9.59" style="fill: rgb(38, 50, 56); transform-origin: 81.42px 357.83px; transform: rotate(-84deg);" class="animable"></ellipse></g><g id="el9o7shdalky"><ellipse cx="81.42" cy="357.83" rx="12.17" ry="9.59" style="fill: rgb(255, 255, 255); isolation: isolate; opacity: 0.7; transform-origin: 81.42px 357.83px; transform: rotate(-84deg);" class="animable"></ellipse></g><path d="M88,357.83c-.22,5.66-4,10.25-8.51,10.25s-7.93-4.59-7.71-10.25,4-10.25,8.52-10.25S88.26,352.17,88,357.83Z" style="fill: rgb(141, 14, 201); transform-origin: 79.8919px 357.83px;" id="elxl4ecd3l49" class="animable"></path><g id="elq8x3tu9d9wf"><path d="M88,357.83c-.22,5.66-4,10.25-8.51,10.25s-7.93-4.59-7.71-10.25,4-10.25,8.52-10.25S88.26,352.17,88,357.83Z" style="fill: rgb(255, 255, 255); opacity: 0.8; transform-origin: 79.8919px 357.83px;" class="animable"></path></g><ellipse cx="81.34" cy="356.26" rx="4.57" ry="5.13" style="fill: rgb(255, 255, 255); transform-origin: 81.34px 356.26px;" id="el5dwqqd213ad" class="animable"></ellipse><path d="M79.06,363a2.3,2.3,0,1,1-2.28-2.57A2.43,2.43,0,0,1,79.06,363Z" style="fill: rgb(255, 255, 255); transform-origin: 76.7701px 362.73px;" id="elwg5eew1km" class="animable"></path><path d="M213.69,340.35,167.49,394,93.3,392.49S89.54,338.74,96,327.72c5.21-9,29.92-12.72,52-14,5.09-.3,10.05-.47,14.59-.54,24.2-.39,43.1,4.47,46.5,8.21S213.69,340.35,213.69,340.35Z" style="fill: rgb(141, 14, 201); transform-origin: 152.951px 353.579px;" id="elcxfu2fu1x0q" class="animable"></path><path d="M95.21,390s-2.4-55.81,2.59-60.62,35.9-4,39.23,0c4.44,5.31-1.29,61.61-1.29,61.61Z" style="fill: rgb(38, 50, 56); transform-origin: 116.675px 358.53px;" id="elwexxtpc05br" class="animable"></path><g id="elzlkcr112lp"><path d="M95.21,390s-2.4-55.81,2.59-60.62,35.9-4,39.23,0c4.44,5.31-1.29,61.61-1.29,61.61Z" style="fill: rgb(255, 255, 255); isolation: isolate; opacity: 0.6; transform-origin: 116.675px 358.53px;" class="animable"></path></g><path d="M98,392.88s-2-55.8,2.12-60.61,29.4-4,32.12,0c3.64,5.31-1.05,61.61-1.05,61.61Z" style="fill: rgb(38, 50, 56); transform-origin: 115.569px 361.42px;" id="elk67mua18pbh" class="animable"></path><path d="M114.33,333.16c-.07.56-.13,1.2-.22,1.92H100.79a1,1,0,1,1,0-1.92Z" style="fill: rgb(38, 50, 56); transform-origin: 106.92px 334.12px;" id="elr2hm6ekyn1" class="animable"></path><path d="M113.86,337.6c0,.59-.11,1.24-.18,1.91H99.85a1,1,0,0,1,0-1.91Z" style="fill: rgb(38, 50, 56); transform-origin: 106.503px 338.555px;" id="elfpz6xiofikc" class="animable"></path><path d="M113.48,342c0,.62-.1,1.25-.14,1.92h-14a1,1,0,0,1,0-1.92Z" style="fill: rgb(38, 50, 56); transform-origin: 106.05px 342.96px;" id="elzg7ej4ozrv8" class="animable"></path><path d="M113.16,346.45c0,.63-.08,1.27-.13,1.92H99.2a1,1,0,1,1,0-1.92Z" style="fill: rgb(38, 50, 56); transform-origin: 105.54px 347.41px;" id="elubd6xndz93" class="animable"></path><path d="M112.89,350.89c0,.62-.07,1.26-.09,1.91H98.91a1,1,0,0,1,0-1.91Z" style="fill: rgb(38, 50, 56); transform-origin: 105.548px 351.845px;" id="elixbmueoqcp" class="animable"></path><path d="M112.67,355.32c0,.63,0,1.26-.07,1.92H98.91a1,1,0,0,1-1-1,1,1,0,0,1,1-.95Z" style="fill: rgb(38, 50, 56); transform-origin: 105.29px 356.265px;" id="elbpbega7tivd" class="animable"></path><path d="M112.51,359.74c0,.63,0,1.27-.05,1.92H98.91a1,1,0,0,1,0-1.92Z" style="fill: rgb(38, 50, 56); transform-origin: 105.35px 360.7px;" id="eltw8j60n4lvr" class="animable"></path><path d="M112.4,364.18c0,.62,0,1.27,0,1.91H98.91a1,1,0,0,1,0-1.91Z" style="fill: rgb(38, 50, 56); transform-origin: 105.303px 365.135px;" id="el90xwj635ss" class="animable"></path><path d="M112.34,368.61c0,.64,0,1.27,0,1.92H98.91a1,1,0,0,1,0-1.92Z" style="fill: rgb(38, 50, 56); transform-origin: 105.265px 369.57px;" id="elbvb0r815u3f" class="animable"></path><path d="M112.33,375H98.91a1,1,0,0,1,0-1.92h13.41C112.32,373.68,112.32,374.32,112.33,375Z" style="fill: rgb(38, 50, 56); transform-origin: 105.26px 374.04px;" id="elelgbhl6bazr" class="animable"></path><path d="M112.38,379.39H98.91a1,1,0,0,1,0-1.92h13.45C112.36,378.1,112.36,378.74,112.38,379.39Z" style="fill: rgb(38, 50, 56); transform-origin: 105.285px 378.43px;" id="elu46083502wa" class="animable"></path><path d="M112.48,383.82H98.91a1,1,0,0,1,0-1.92h13.51Z" style="fill: rgb(38, 50, 56); transform-origin: 105.335px 382.86px;" id="el9lfn4g1wn0t" class="animable"></path><path d="M112.62,388.25H99.29a1,1,0,1,1,0-1.91h13.26C112.57,387,112.6,387.61,112.62,388.25Z" style="fill: rgb(38, 50, 56); transform-origin: 105.307px 387.295px;" id="el2pzoxrj2tki" class="animable"></path><g id="elml93qxxzfal"><g style="isolation: isolate; opacity: 0.5; transform-origin: 106.12px 360.708px;" class="animable"><path d="M114.33,333.16c-.07.56-.13,1.2-.22,1.92H100.79a1,1,0,1,1,0-1.92Z" style="fill: rgb(255, 255, 255); transform-origin: 106.92px 334.12px;" id="elbalox4ti30v" class="animable"></path><path d="M113.86,337.6c0,.59-.11,1.24-.18,1.91H99.85a1,1,0,0,1,0-1.91Z" style="fill: rgb(255, 255, 255); transform-origin: 106.503px 338.555px;" id="elmlp82lgpd9l" class="animable"></path><path d="M113.48,342c0,.62-.1,1.25-.14,1.92h-14a1,1,0,0,1,0-1.92Z" style="fill: rgb(255, 255, 255); transform-origin: 106.05px 342.96px;" id="el2o18r3wviuy" class="animable"></path><path d="M113.16,346.45c0,.63-.08,1.27-.13,1.92H99.2a1,1,0,1,1,0-1.92Z" style="fill: rgb(255, 255, 255); transform-origin: 105.54px 347.41px;" id="elkh3sh4ldinh" class="animable"></path><path d="M112.89,350.89c0,.62-.07,1.26-.09,1.91H98.91a1,1,0,0,1,0-1.91Z" style="fill: rgb(255, 255, 255); transform-origin: 105.548px 351.845px;" id="elya0x3j87wd" class="animable"></path><path d="M112.67,355.32c0,.63,0,1.26-.07,1.92H98.91a1,1,0,0,1-1-1,1,1,0,0,1,1-.95Z" style="fill: rgb(255, 255, 255); transform-origin: 105.29px 356.265px;" id="elft2k1hrmir" class="animable"></path><path d="M112.51,359.74c0,.63,0,1.27-.05,1.92H98.91a1,1,0,0,1,0-1.92Z" style="fill: rgb(255, 255, 255); transform-origin: 105.35px 360.7px;" id="elm1ikxggmuy" class="animable"></path><path d="M112.4,364.18c0,.62,0,1.27,0,1.91H98.91a1,1,0,0,1,0-1.91Z" style="fill: rgb(255, 255, 255); transform-origin: 105.303px 365.135px;" id="elg783uavll3m" class="animable"></path><path d="M112.34,368.61c0,.64,0,1.27,0,1.92H98.91a1,1,0,0,1,0-1.92Z" style="fill: rgb(255, 255, 255); transform-origin: 105.265px 369.57px;" id="el8rfh1bfdxm3" class="animable"></path><path d="M112.33,375H98.91a1,1,0,0,1,0-1.92h13.41C112.32,373.68,112.32,374.32,112.33,375Z" style="fill: rgb(255, 255, 255); transform-origin: 105.26px 374.04px;" id="elhu34lhpnumr" class="animable"></path><path d="M112.38,379.39H98.91a1,1,0,0,1,0-1.92h13.45C112.36,378.1,112.36,378.74,112.38,379.39Z" style="fill: rgb(255, 255, 255); transform-origin: 105.285px 378.43px;" id="el42431t6enyh" class="animable"></path><path d="M112.48,383.82H98.91a1,1,0,0,1,0-1.92h13.51Z" style="fill: rgb(255, 255, 255); transform-origin: 105.335px 382.86px;" id="elsz6xsrdux8e" class="animable"></path><path d="M112.62,388.25H99.29a1,1,0,1,1,0-1.91h13.26C112.57,387,112.6,387.61,112.62,388.25Z" style="fill: rgb(255, 255, 255); transform-origin: 105.307px 387.295px;" id="elvtdno6nk5y" class="animable"></path></g></g><path d="M132.08,335.08H119.5a1,1,0,0,1,0-1.92h12.16A13.5,13.5,0,0,1,132.08,335.08Z" style="fill: rgb(38, 50, 56); transform-origin: 125.43px 334.12px;" id="elpg4in9b0qi8" class="animable"></path><path d="M132.48,339.51H118.57a1,1,0,1,1,0-1.91h13.79C132.41,338.19,132.45,338.84,132.48,339.51Z" style="fill: rgb(38, 50, 56); transform-origin: 124.877px 338.555px;" id="elmnrk0rh9ln" class="animable"></path><path d="M132.61,343.94H118.1a1,1,0,0,1,0-1.92h14.48Q132.61,343,132.61,343.94Z" style="fill: rgb(38, 50, 56); transform-origin: 124.995px 342.98px;" id="elugw64cx6c6l" class="animable"></path><path d="M132.63,346.45c0,.63,0,1.27,0,1.92H117.91a1,1,0,0,1,0-1.92Z" style="fill: rgb(38, 50, 56); transform-origin: 124.91px 347.41px;" id="elcirnxcot8zm" class="animable"></path><path d="M132.59,350.89c0,.63,0,1.27,0,1.91H117.63a1,1,0,0,1,0-1.91Z" style="fill: rgb(38, 50, 56); transform-origin: 124.758px 351.845px;" id="elnj3uo5cgzup" class="animable"></path><path d="M132.48,355.32c0,.64,0,1.27-.06,1.92H117.63a1,1,0,0,1-.95-1,1,1,0,0,1,.95-.95Z" style="fill: rgb(38, 50, 56); transform-origin: 124.58px 356.265px;" id="el7brtbl96h8q" class="animable"></path><path d="M132.32,359.74c0,.64,0,1.29-.08,1.92H117.63a1,1,0,0,1,0-1.92Z" style="fill: rgb(38, 50, 56); transform-origin: 124.615px 360.7px;" id="elzicb2qgfh6" class="animable"></path><path d="M132.13,364.18c0,.64-.06,1.28-.1,1.91h-14.4a1,1,0,0,1,0-1.91Z" style="fill: rgb(38, 50, 56); transform-origin: 124.528px 365.135px;" id="elcci12avjtwg" class="animable"></path><path d="M131.9,368.61c0,.65-.06,1.28-.1,1.92H117.63a1,1,0,0,1,0-1.92Z" style="fill: rgb(38, 50, 56); transform-origin: 124.405px 369.57px;" id="el8yzv8ymfxnc" class="animable"></path><path d="M131.65,373c0,.65-.07,1.29-.11,1.92H117.63a1,1,0,0,1,0-1.92Z" style="fill: rgb(38, 50, 56); transform-origin: 124.28px 373.96px;" id="el53xtq99xh7h" class="animable"></path><path d="M131.39,377.47c0,.65-.08,1.29-.13,1.92H117.63a1,1,0,0,1,0-1.92Z" style="fill: rgb(38, 50, 56); transform-origin: 124.15px 378.43px;" id="el9w5cnyydcbl" class="animable"></path><path d="M131.09,381.9c-.05.67-.08,1.3-.13,1.92H117.63a1,1,0,0,1,0-1.92Z" style="fill: rgb(38, 50, 56); transform-origin: 124px 382.86px;" id="elat5x37ovx6l" class="animable"></path><path d="M130.78,386.34c-.05.67-.09,1.31-.15,1.91H118a1,1,0,1,1,0-1.91Z" style="fill: rgb(38, 50, 56); transform-origin: 123.742px 387.295px;" id="elffrg1yeuj38" class="animable"></path><g id="ele679txgzsjt"><g style="isolation: isolate; opacity: 0.5; transform-origin: 124.655px 360.727px;" class="animable"><path d="M132.08,335.08H119.5a1,1,0,0,1,0-1.92h12.16A13.5,13.5,0,0,1,132.08,335.08Z" style="fill: rgb(255, 255, 255); transform-origin: 125.43px 334.12px;" id="elkrpvhdent3c" class="animable"></path><path d="M132.48,339.51H118.57a1,1,0,1,1,0-1.91h13.79C132.41,338.19,132.45,338.84,132.48,339.51Z" style="fill: rgb(255, 255, 255); transform-origin: 124.877px 338.555px;" id="elbn9vztokzjp" class="animable"></path><path d="M132.61,343.94H118.1a1,1,0,0,1,0-1.92h14.48Q132.61,343,132.61,343.94Z" style="fill: rgb(255, 255, 255); transform-origin: 124.995px 342.98px;" id="elyxmvrl2iqr" class="animable"></path><path d="M132.63,346.45c0,.63,0,1.27,0,1.92H117.91a1,1,0,0,1,0-1.92Z" style="fill: rgb(255, 255, 255); transform-origin: 124.91px 347.41px;" id="elt0focycw5jm" class="animable"></path><path d="M132.59,350.89c0,.63,0,1.27,0,1.91H117.63a1,1,0,0,1,0-1.91Z" style="fill: rgb(255, 255, 255); transform-origin: 124.758px 351.845px;" id="el7rj2eat6w2k" class="animable"></path><path d="M132.48,355.32c0,.64,0,1.27-.06,1.92H117.63a1,1,0,0,1-.95-1,1,1,0,0,1,.95-.95Z" style="fill: rgb(255, 255, 255); transform-origin: 124.58px 356.265px;" id="elqcrah7t4gy" class="animable"></path><path d="M132.32,359.74c0,.64,0,1.29-.08,1.92H117.63a1,1,0,0,1,0-1.92Z" style="fill: rgb(255, 255, 255); transform-origin: 124.615px 360.7px;" id="eltr7wi8uepym" class="animable"></path><path d="M132.13,364.18c0,.64-.06,1.28-.1,1.91h-14.4a1,1,0,0,1,0-1.91Z" style="fill: rgb(255, 255, 255); transform-origin: 124.528px 365.135px;" id="elxqrwz6igpvq" class="animable"></path><path d="M131.9,368.61c0,.65-.06,1.28-.1,1.92H117.63a1,1,0,0,1,0-1.92Z" style="fill: rgb(255, 255, 255); transform-origin: 124.405px 369.57px;" id="elihq1uutjfem" class="animable"></path><path d="M131.65,373c0,.65-.07,1.29-.11,1.92H117.63a1,1,0,0,1,0-1.92Z" style="fill: rgb(255, 255, 255); transform-origin: 124.28px 373.96px;" id="el4gatlu0mfx1" class="animable"></path><path d="M131.39,377.47c0,.65-.08,1.29-.13,1.92H117.63a1,1,0,0,1,0-1.92Z" style="fill: rgb(255, 255, 255); transform-origin: 124.15px 378.43px;" id="el5j8armi0fvc" class="animable"></path><path d="M131.09,381.9c-.05.67-.08,1.3-.13,1.92H117.63a1,1,0,0,1,0-1.92Z" style="fill: rgb(255, 255, 255); transform-origin: 124px 382.86px;" id="eld0f9zk2062" class="animable"></path><path d="M130.78,386.34c-.05.67-.09,1.31-.15,1.91H118a1,1,0,1,1,0-1.91Z" style="fill: rgb(255, 255, 255); transform-origin: 123.742px 387.295px;" id="eli97yvhbjbz" class="animable"></path></g></g><path d="M115.07,392.48a1.41,1.41,0,0,1-1.4-1.34c-1.59-35.86,1.89-60.38,1.93-60.62a1.4,1.4,0,1,1,2.77.4c0,.24-3.47,24.52-1.9,60.09a1.39,1.39,0,0,1-1.34,1.46Z" style="fill: rgb(38, 50, 56); transform-origin: 115.823px 360.879px;" id="elc14ptrlxlqg" class="animable"></path><g id="elkph04t67tkl"><g style="isolation: isolate; opacity: 0.6; transform-origin: 115.823px 360.879px;" class="animable"><path d="M115.07,392.48a1.41,1.41,0,0,1-1.4-1.34c-1.59-35.86,1.89-60.38,1.93-60.62a1.4,1.4,0,1,1,2.77.4c0,.24-3.47,24.52-1.9,60.09a1.39,1.39,0,0,1-1.34,1.46Z" style="fill: rgb(255, 255, 255); transform-origin: 115.823px 360.879px;" id="elthk84sx7vmr" class="animable"></path></g></g><g id="el6uj8ge9q3lu"><path d="M125.31,320.23s19,.6,25.41,5.81,68.75-7.61,68.75-7.61-32-5.55-49.76-5.25S130.3,317.76,125.31,320.23Z" style="fill: rgb(255, 255, 255); opacity: 0.2; transform-origin: 172.39px 320.227px;" class="animable"></path></g><g id="elci554qugxwh"><path d="M148,313.69s-17.22,2.05-28.32,6.54c0,0-17.94-.42-23.67,7.49,5.21-9,29.92-12.72,52-14Z" style="fill: rgb(255, 255, 255); opacity: 0.2; transform-origin: 122.01px 320.705px;" class="animable"></path></g><g id="elhug6wkogjxm"><path d="M274.64,269.26c-16.62-2.59-38.08-.8-38.08-.8-34.94-5.41-71.59-.11-72.29,0,11.31-6.67,42.78-11.61,83.64-8.85,13.45.9,22.77,4.45,25.66,8A11.37,11.37,0,0,1,274.64,269.26Z" style="fill: rgb(255, 255, 255); opacity: 0.2; transform-origin: 219.455px 264.045px;" class="animable"></path></g><g id="els2014flwi5g"><g style="opacity: 0.4; transform-origin: 251.121px 311.201px;" class="animable"><path d="M233.85,352.31a.47.47,0,0,1-.47-.45c0-.28-1.13-27.91-6.15-34.06a.45.45,0,0,1-.09-.39l9.33-46.55a.48.48,0,0,1,.43-.38c.26,0,25.69-1.64,37.87,1.74a.47.47,0,0,1,.33.57.47.47,0,0,1-.58.33c-11.24-3.12-34.07-1.91-37.2-1.73l-9.23,46c5.1,6.7,6.18,33.31,6.23,34.45a.47.47,0,0,1-.45.48Z" style="fill: rgb(38, 50, 56); transform-origin: 251.121px 311.201px;" id="eleqqir8pf8qw" class="animable"></path></g></g><rect x="272.33" y="326" width="17.02" height="4.51" rx="2.24" style="fill: rgb(38, 50, 56); transform-origin: 280.84px 328.255px;" id="el22vg65rh2ww" class="animable"></rect><g id="el7e3n8d06ds8"><rect x="272.33" y="326" width="17.02" height="4.51" rx="2.24" style="fill: rgb(255, 255, 255); isolation: isolate; opacity: 0.7; transform-origin: 280.84px 328.255px;" class="animable"></rect></g><path d="M70.3,402.72H187.9s-.49-45.39,21.13-45.39c17.3,0,21.7,29.08,22.77,40.69a5.18,5.18,0,0,0,5.16,4.7h90a4,4,0,0,0,3.93-3.66c.7-10.1,4.08-37.64,20.06-37.64,19.58,0,24.53,18.7,24.53,40.47l9.1-12.26s6.39-57.51-36.91-54.78c-42,2.66-40,52.4-40,52.4h-59.3s-3.22-39.48-20.88-49.78-45.42-5.89-55.26,2.89C156.88,354,156,391.52,156,391.52H72.6Z" style="fill: rgb(141, 14, 201); transform-origin: 227.606px 367.113px;" id="elmbpcixbw1t" class="animable"></path><g id="elregieziwab"><path d="M70.3,402.72H187.9s-.49-45.39,21.13-45.39c17.3,0,21.7,29.08,22.77,40.69a5.18,5.18,0,0,0,5.16,4.7h90a4,4,0,0,0,3.93-3.66c.7-10.1,4.08-37.64,20.06-37.64,19.58,0,24.53,18.7,24.53,40.47l9.1-12.26s6.39-57.51-36.91-54.78c-42,2.66-40,52.4-40,52.4h-59.3s-3.22-39.48-20.88-49.78-45.42-5.89-55.26,2.89C156.88,354,156,391.52,156,391.52H72.6Z" style="fill: rgb(38, 50, 56); opacity: 0.2; transform-origin: 227.606px 367.113px;" class="animable"></path></g><g id="eln9lzr5vocyt"><path d="M157.75,387.29s.22-46.3,29.41-52.64c19.06-4.14,39.41,0,45.33,10.42,0,0-5.88-7.47-21.44-7.47s-24.81,34.88-27.77,44.3S157.75,387.29,157.75,387.29Z" style="fill: rgb(255, 255, 255); opacity: 0.2; transform-origin: 195.12px 360.606px;" class="animable"></path></g><g id="el0ov0m9i9yc1c"><ellipse cx="173.14" cy="357.83" rx="12.17" ry="9.59" style="fill: rgb(38, 50, 56); transform-origin: 173.14px 357.83px; transform: rotate(-84deg);" class="animable"></ellipse></g><g id="el6jlyice09dk"><ellipse cx="173.14" cy="357.83" rx="12.17" ry="9.59" style="fill: rgb(255, 255, 255); isolation: isolate; opacity: 0.7; transform-origin: 173.14px 357.83px; transform: rotate(-84deg);" class="animable"></ellipse></g><g id="elmywdlxxhz3g"><ellipse cx="171.64" cy="357.83" rx="10.27" ry="8.09" style="fill: rgb(141, 14, 201); transform-origin: 171.64px 357.83px; transform: rotate(-84deg);" class="animable"></ellipse></g><g id="el5pwvbge8kg5"><ellipse cx="171.64" cy="357.83" rx="10.27" ry="8.09" style="fill: rgb(255, 255, 255); opacity: 0.8; transform-origin: 171.64px 357.83px; transform: rotate(-84deg);" class="animable"></ellipse></g><ellipse cx="173.06" cy="356.26" rx="4.57" ry="5.13" style="fill: rgb(255, 255, 255); transform-origin: 173.06px 356.26px;" id="elvlxcmfk9je" class="animable"></ellipse><ellipse cx="168.49" cy="362.96" rx="2.28" ry="2.56" style="fill: rgb(255, 255, 255); transform-origin: 168.49px 362.96px;" id="elijh9bz9m3cb" class="animable"></ellipse><g id="elrluze5qiikl"><path d="M309.27,385.77s8,3.14,14.43,0,15-33.49,26.46-40.7,23.17.22,27,6.06c0,0-5.37-14.39-26.27-15.31S309.27,351.91,309.27,385.77Z" style="fill: rgb(255, 255, 255); opacity: 0.2; transform-origin: 343.215px 361.475px;" class="animable"></path></g><rect x="64.13" y="389.96" width="127.29" height="13.71" rx="6.8" style="fill: rgb(38, 50, 56); transform-origin: 127.775px 396.815px;" id="el41gx9yfmvxr" class="animable"></rect><g id="elvqekj33oclf"><rect x="64.13" y="389.96" width="127.29" height="13.71" rx="6.8" style="fill: rgb(255, 255, 255); isolation: isolate; opacity: 0.7; transform-origin: 127.775px 396.815px;" class="animable"></rect></g><g id="elw3n4usndobn"><path d="M191.42,396.81a6.88,6.88,0,0,1-6.86,6.86H71a6.72,6.72,0,0,1-3.44-.94H171.47A6.84,6.84,0,0,0,176.3,391a6.38,6.38,0,0,0-1.4-1.08h9.66a6.88,6.88,0,0,1,6.86,6.86Z" style="fill: rgb(38, 50, 56); opacity: 0.2; transform-origin: 129.49px 396.795px;" class="animable"></path></g><rect x="155.4" y="394.33" width="10.61" height="4.92" rx="2.44" style="fill: rgb(141, 14, 201); transform-origin: 160.705px 396.79px;" id="el3m866fhzwgn" class="animable"></rect><rect x="67.55" y="394.33" width="10.61" height="4.92" rx="2.44" style="fill: rgb(141, 14, 201); transform-origin: 72.855px 396.79px;" id="el1um6rh11irx" class="animable"></rect><rect x="372.98" y="389.96" width="20.6" height="13.71" rx="6.8" style="fill: rgb(38, 50, 56); transform-origin: 383.28px 396.815px;" id="el0yr1esl9hzv9" class="animable"></rect><g id="el5xrp3kiar5f"><rect x="372.98" y="389.96" width="20.6" height="13.71" rx="6.8" style="fill: rgb(255, 255, 255); isolation: isolate; opacity: 0.7; transform-origin: 383.28px 396.815px;" class="animable"></rect></g><path d="M228.1,321.11a1.55,1.55,0,1,1-1.53-1.33A1.43,1.43,0,0,1,228.1,321.11Z" style="fill: rgb(38, 50, 56); transform-origin: 226.566px 321.328px;" id="elut3fsfzgam" class="animable"></path><g id="el5ri4vu2otrl"><path d="M228.1,321.11a1.55,1.55,0,1,1-1.53-1.33A1.43,1.43,0,0,1,228.1,321.11Z" style="fill: rgb(255, 255, 255); isolation: isolate; opacity: 0.2; transform-origin: 226.566px 321.328px;" class="animable"></path></g><path d="M243.45,310.49c0,3.06-2,5.55-4.37,5.55s-4.36-2.49-4.36-5.55,1.95-5.55,4.36-5.55S243.45,307.42,243.45,310.49Z" style="fill: rgb(38, 50, 56); transform-origin: 239.085px 310.49px;" id="elo8ii94d9twh" class="animable"></path><g id="el3kwcjd8ddwf"><path d="M243.45,310.49c0,3.06-2,5.55-4.37,5.55a3.71,3.71,0,0,1-.47,0c-2.18-.3-3.89-2.65-3.89-5.52s1.71-5.22,3.89-5.52a3.71,3.71,0,0,1,.47,0C241.49,304.94,243.45,307.43,243.45,310.49Z" style="fill: rgb(255, 255, 255); isolation: isolate; opacity: 0.5; transform-origin: 239.085px 310.52px;" class="animable"></path></g><g id="el4t9ekuaag3b"><path d="M242.51,310.49c0,2.87-1.71,5.22-3.9,5.52-2.18-.3-3.89-2.65-3.89-5.52s1.71-5.22,3.89-5.52C240.8,305.27,242.51,307.62,242.51,310.49Z" style="fill: rgb(255, 255, 255); isolation: isolate; opacity: 0.5; transform-origin: 238.615px 310.49px;" class="animable"></path></g><path d="M228.26,321.4H226.7a.47.47,0,1,1,0-.94h1.56a2.61,2.61,0,0,0,2-.9l6-6.95a.47.47,0,1,1,.71.61l-6,6.95A3.55,3.55,0,0,1,228.26,321.4Z" style="fill: rgb(38, 50, 56); transform-origin: 231.672px 316.906px;" id="eluo5ac768akg" class="animable"></path><g id="elypwjfj9vtwq"><g style="isolation: isolate; opacity: 0.5; transform-origin: 231.672px 316.906px;" class="animable"><path d="M228.26,321.4H226.7a.47.47,0,1,1,0-.94h1.56a2.61,2.61,0,0,0,2-.9l6-6.95a.47.47,0,1,1,.71.61l-6,6.95A3.55,3.55,0,0,1,228.26,321.4Z" style="fill: rgb(255, 255, 255); transform-origin: 231.672px 316.906px;" id="elbaifb28e3a" class="animable"></path></g></g><g id="el25luz1nlx5w"><path d="M146.25,310.49s8.83-22,16.73-33.51c0,0,8.21-2.46,28-2.71,0,0-10.86,14.87-16,26.89,0,0,1.45-11.65,5.43-20.72a149.89,149.89,0,0,0-14.11,28.37A142.84,142.84,0,0,0,146.25,310.49Z" style="fill: rgb(255, 255, 255); opacity: 0.2; transform-origin: 168.615px 292.38px;" class="animable"></path></g></g><defs>     <filter id="active" height="200%">         <feMorphology in="SourceAlpha" result="DILATED" operator="dilate" radius="2"></feMorphology>                <feFlood flood-color="#32DFEC" flood-opacity="1" result="PINK"></feFlood>        <feComposite in="PINK" in2="DILATED" operator="in" result="OUTLINE"></feComposite>        <feMerge>            <feMergeNode in="OUTLINE"></feMergeNode>            <feMergeNode in="SourceGraphic"></feMergeNode>        </feMerge>    </filter>    <filter id="hover" height="200%">        <feMorphology in="SourceAlpha" result="DILATED" operator="dilate" radius="2"></feMorphology>                <feFlood flood-color="#ff0000" flood-opacity="0.5" result="PINK"></feFlood>        <feComposite in="PINK" in2="DILATED" operator="in" result="OUTLINE"></feComposite>        <feMerge>            <feMergeNode in="OUTLINE"></feMergeNode>            <feMergeNode in="SourceGraphic"></feMergeNode>        </feMerge>            <feColorMatrix type="matrix" values="0   0   0   0   0                0   1   0   0   0                0   0   0   0   0                0   0   0   1   0 "></feColorMatrix>    </filter></defs></svg>